<svg xmlns="http://www.w3.org/2000/svg" xmlns:xlink="http://www.w3.org/1999/xlink" xmlns:lucid="lucid" width="1012" height="906"><g transform="translate(-2459 1634)" lucid:page-tab-id="0_0"><path d="M2501-925.97l900.5-.87M2501.03-925.97H2500" stroke="#5e5e5e" stroke-width="2" fill="none"/><path d="M3416.76-926.85l-14.26 4.65v-9.27z" stroke="#5e5e5e" stroke-width="2" fill="#5e5e5e"/><path d="M2629.5-775.56v-684.53M2629.5-775.58v1.02" stroke="#5e5e5e" stroke-width="2" fill="none"/><path d="M2629.5-1475.36l4.64 14.27h-9.28z" stroke="#5e5e5e" stroke-width="2" fill="#5e5e5e"/><path d="M2893.8-1222v-98.5" stroke="#5e5e5e" stroke-width="2" fill="none"/><path d="M2894.8-1220.94l-.98-.06-1 .04v-1.07h2z" stroke="#5e5e5e" stroke-width=".05" fill="#5e5e5e"/><path d="M2893.8-1335.76l4.65 14.26h-9.27z" stroke="#5e5e5e" stroke-width="2" fill="#5e5e5e"/><path d="M2933.8-1180c0 22.1-17.9 40-40 40-22.08 0-40-17.9-40-40s17.92-40 40-40c22.1 0 40 17.9 40 40z" stroke="#5e5e5e" stroke-width="2" fill="#ced4db"/><use xlink:href="#a" transform="matrix(1,0,0,1,2858.8112775825284,-1215) translate(23.148148148148145 38.28472222222222)"/><path d="M2933.8-1380c0 22.1-17.9 40-40 40-22.08 0-40-17.9-40-40s17.92-40 40-40c22.1 0 40 17.9 40 40z" stroke="#5e5e5e" stroke-width="2" fill="#fff"/><use xlink:href="#b" transform="matrix(1,0,0,1,2858.8112775825284,-1415) translate(24.1358024691358 38.28472222222222)"/><path d="M3133.8-1180c0 22.1-17.9 40-40 40-22.08 0-40-17.9-40-40s17.92-40 40-40c22.1 0 40 17.9 40 40z" stroke="#5e5e5e" stroke-width="2" fill="#ced4db"/><use xlink:href="#a" transform="matrix(1,0,0,1,3058.8112775825284,-1215) translate(23.148148148148145 38.28472222222222)"/><path d="M3133.8-1380c0 22.1-17.9 40-40 40-22.08 0-40-17.9-40-40s17.92-40 40-40c22.1 0 40 17.9 40 40z" stroke="#5e5e5e" stroke-width="2" fill="#fff"/><use xlink:href="#b" transform="matrix(1,0,0,1,3058.8112775825284,-1415) translate(24.1358024691358 38.28472222222222)"/><path d="M3333.8-1180c0 22.1-17.9 40-40 40-22.08 0-40-17.9-40-40s17.92-40 40-40c22.1 0 40 17.9 40 40z" stroke="#5e5e5e" stroke-width="2" fill="#ced4db"/><use xlink:href="#a" transform="matrix(1,0,0,1,3258.8112775825284,-1215) translate(23.148148148148145 38.28472222222222)"/><path d="M3333.8-1380c0 22.1-17.9 40-40 40-22.08 0-40-17.9-40-40s17.92-40 40-40c22.1 0 40 17.9 40 40z" stroke="#5e5e5e" stroke-width="2" fill="#fff"/><use xlink:href="#b" transform="matrix(1,0,0,1,3258.8112775825284,-1415) translate(24.1358024691358 38.28472222222222)"/><path d="M2991.8-1478a1 1 0 0 1 1 1v699.03a1 1 0 0 1-1 1 1 1 0 0 1-1-1V-1477a1 1 0 0 1 1-1z" fill="none"/><path d="M2991.8-1477c-.54 0-1-.45-1-1s.46-1 1-1c.56 0 1 .45 1 1s-.44 1-1 1zm1 9.04c-.54 0-1-.45-1-1 0-.56.46-1 1-1 .56 0 1 .44 1 1 0 .55-.44 1-1 1zm0 8.03c-.54 0-1-.45-1-1s.46-1 1-1c.56 0 1 .45 1 1s-.44 1-1 1zm0 8.03c-.54 0-1-.44-1-1 0-.55.46-1 1-1 .56 0 1 .45 1 1 0 .56-.44 1-1 1zm0 8.04c-.54 0-1-.45-1-1s.46-1 1-1c.56 0 1 .45 1 1s-.44 1-1 1zm0 8.03c-.54 0-1-.44-1-1 0-.55.46-1 1-1 .56 0 1 .45 1 1 0 .56-.44 1-1 1zm0 8.04c-.54 0-1-.44-1-1 0-.54.46-1 1-1 .56 0 1 .46 1 1 0 .56-.44 1-1 1zm0 8.04c-.54 0-1-.44-1-1 0-.55.46-1 1-1 .56 0 1 .45 1 1 0 .56-.44 1-1 1zm0 8.04c-.54 0-1-.45-1-1s.46-1 1-1c.56 0 1 .45 1 1s-.44 1-1 1zm0 8.03c-.54 0-1-.43-1-1 0-.54.46-1 1-1 .56 0 1 .46 1 1 0 .57-.44 1-1 1zm0 8.05c-.54 0-1-.45-1-1s.46-1 1-1c.56 0 1 .45 1 1s-.44 1-1 1zm0 8.03c-.54 0-1-.44-1-1 0-.55.46-1 1-1 .56 0 1 .45 1 1 0 .56-.44 1-1 1zm0 8.04c-.54 0-1-.45-1-1s.46-1 1-1c.56 0 1 .45 1 1s-.44 1-1 1zm0 8.03c-.54 0-1-.44-1-1 0-.55.46-1 1-1 .56 0 1 .45 1 1 0 .56-.44 1-1 1zm0 8.04c-.54 0-1-.46-1-1 0-.56.46-1 1-1 .56 0 1 .44 1 1 0 .54-.44 1-1 1zm0 8.02c-.54 0-1-.44-1-1 0-.55.46-1 1-1 .56 0 1 .45 1 1 0 .56-.44 1-1 1zm0 8.04c-.54 0-1-.45-1-1s.46-1 1-1c.56 0 1 .45 1 1s-.44 1-1 1zm0 8.03c-.54 0-1-.45-1-1 0-.56.46-1 1-1 .56 0 1 .44 1 1 0 .55-.44 1-1 1zm0 8.03c-.54 0-1-.45-1-1s.46-1 1-1c.56 0 1 .45 1 1s-.44 1-1 1zm0 8.03c-.54 0-1-.45-1-1s.46-1 1-1c.56 0 1 .45 1 1s-.44 1-1 1zm0 8.04c-.54 0-1-.45-1-1s.46-1 1-1c.56 0 1 .45 1 1s-.44 1-1 1zm0 8.03c-.54 0-1-.45-1-1s.46-1 1-1c.56 0 1 .45 1 1s-.44 1-1 1zm0 8.04c-.54 0-1-.45-1-1 0-.56.46-1 1-1 .56 0 1 .44 1 1 0 .55-.44 1-1 1zm0 8.03c-.54 0-1-.45-1-1s.46-1 1-1c.56 0 1 .45 1 1s-.44 1-1 1zm0 8.04c-.54 0-1-.45-1-1 0-.56.46-1 1-1 .56 0 1 .44 1 1 0 .55-.44 1-1 1zm0 8.03c-.54 0-1-.45-1-1s.46-1 1-1c.56 0 1 .45 1 1s-.44 1-1 1zm0 8.04c-.54 0-1-.44-1-1 0-.55.46-1 1-1 .56 0 1 .45 1 1 0 .56-.44 1-1 1zm0 8.04c-.54 0-1-.45-1-1s.46-1 1-1c.56 0 1 .45 1 1s-.44 1-1 1zm0 8.04c-.54 0-1-.45-1-1 0-.56.46-1 1-1 .56 0 1 .44 1 1 0 .55-.44 1-1 1zm0 8.03c-.54 0-1-.44-1-1 0-.54.46-1 1-1 .56 0 1 .46 1 1 0 .56-.44 1-1 1zm0 8.05c-.54 0-1-.45-1-1 0-.56.46-1 1-1 .56 0 1 .44 1 1 0 .55-.44 1-1 1zm0 8.03c-.54 0-1-.45-1-1s.46-1 1-1c.56 0 1 .45 1 1s-.44 1-1 1zm0 8.04c-.54 0-1-.45-1-1 0-.56.46-1 1-1 .56 0 1 .44 1 1 0 .55-.44 1-1 1zm0 8.03c-.54 0-1-.45-1-1s.46-1 1-1c.56 0 1 .45 1 1s-.44 1-1 1zm0 8.04c-.54 0-1-.46-1-1 0-.57.46-1 1-1 .56 0 1 .43 1 1 0 .54-.44 1-1 1zm0 8.02c-.54 0-1-.45-1-1s.46-1 1-1c.56 0 1 .45 1 1s-.44 1-1 1zm0 8.04c-.54 0-1-.45-1-1 0-.56.46-1 1-1 .56 0 1 .44 1 1 0 .55-.44 1-1 1zm0 8.03c-.54 0-1-.46-1-1 0-.56.46-1 1-1 .56 0 1 .44 1 1 0 .54-.44 1-1 1zm0 8.03c-.54 0-1-.45-1-1 0-.56.46-1 1-1 .56 0 1 .44 1 1 0 .55-.44 1-1 1zm0 8.03c-.54 0-1-.45-1-1s.46-1 1-1c.56 0 1 .45 1 1s-.44 1-1 1zm0 8.03c-.54 0-1-.45-1-1 0-.56.46-1 1-1 .56 0 1 .44 1 1 0 .55-.44 1-1 1zm0 8.03c-.54 0-1-.45-1-1s.46-1 1-1c.56 0 1 .45 1 1s-.44 1-1 1zm0 8.03c-.54 0-1-.44-1-1 0-.55.46-1 1-1 .56 0 1 .45 1 1 0 .56-.44 1-1 1zm0 8.04c-.54 0-1-.45-1-1s.46-1 1-1c.56 0 1 .45 1 1s-.44 1-1 1zm0 8.03c-.54 0-1-.44-1-1 0-.55.46-1 1-1 .56 0 1 .45 1 1 0 .56-.44 1-1 1zm0 8.04c-.54 0-1-.45-1-1s.46-1 1-1c.56 0 1 .45 1 1s-.44 1-1 1zm0 8.03c-.54 0-1-.44-1-1 0-.55.46-1 1-1 .56 0 1 .45 1 1 0 .56-.44 1-1 1zm0 8.04c-.54 0-1-.45-1-1s.46-1 1-1c.56 0 1 .45 1 1s-.44 1-1 1zm0 8.03c-.54 0-1-.44-1-1 0-.55.46-1 1-1 .56 0 1 .45 1 1 0 .56-.44 1-1 1zm0 8.04c-.54 0-1-.44-1-1 0-.54.46-1 1-1 .56 0 1 .46 1 1 0 .56-.44 1-1 1zm0 8.04c-.54 0-1-.44-1-1 0-.55.46-1 1-1 .56 0 1 .45 1 1 0 .56-.44 1-1 1zm0 8.04c-.54 0-1-.45-1-1s.46-1 1-1c.56 0 1 .45 1 1s-.44 1-1 1zm0 8.03c-.54 0-1-.43-1-1 0-.54.46-1 1-1 .56 0 1 .46 1 1 0 .57-.44 1-1 1zm0 8.05c-.54 0-1-.45-1-1s.46-1 1-1c.56 0 1 .45 1 1s-.44 1-1 1zm0 8.03c-.54 0-1-.44-1-1 0-.55.46-1 1-1 .56 0 1 .45 1 1 0 .56-.44 1-1 1zm0 8.04c-.54 0-1-.45-1-1s.46-1 1-1c.56 0 1 .45 1 1s-.44 1-1 1zm0 8.03c-.54 0-1-.45-1-1s.46-1 1-1c.56 0 1 .45 1 1s-.44 1-1 1zm0 8.04c-.54 0-1-.46-1-1 0-.56.46-1 1-1 .56 0 1 .44 1 1 0 .54-.44 1-1 1zm0 8.02c-.54 0-1-.45-1-1s.46-1 1-1c.56 0 1 .45 1 1s-.44 1-1 1zm0 8.04c-.54 0-1-.45-1-1 0-.56.46-1 1-1 .56 0 1 .44 1 1 0 .55-.44 1-1 1zm0 8.03c-.54 0-1-.46-1-1 0-.56.46-1 1-1 .56 0 1 .44 1 1 0 .54-.44 1-1 1zm0 8.03c-.54 0-1-.45-1-1 0-.56.46-1 1-1 .56 0 1 .44 1 1 0 .55-.44 1-1 1zm0 8.03c-.54 0-1-.45-1-1s.46-1 1-1c.56 0 1 .45 1 1s-.44 1-1 1zm0 8.04c-.54 0-1-.45-1-1 0-.56.46-1 1-1 .56 0 1 .44 1 1 0 .55-.44 1-1 1zm0 8.03c-.54 0-1-.45-1-1s.46-1 1-1c.56 0 1 .45 1 1s-.44 1-1 1zm0 8.04c-.54 0-1-.45-1-1 0-.56.46-1 1-1 .56 0 1 .44 1 1 0 .55-.44 1-1 1zm0 8.03c-.54 0-1-.45-1-1s.46-1 1-1c.56 0 1 .45 1 1s-.44 1-1 1zm0 8.04c-.54 0-1-.45-1-1 0-.56.46-1 1-1 .56 0 1 .44 1 1 0 .55-.44 1-1 1zm0 8.03c-.54 0-1-.45-1-1s.46-1 1-1c.56 0 1 .45 1 1s-.44 1-1 1zm0 8.04c-.54 0-1-.44-1-1 0-.55.46-1 1-1 .56 0 1 .45 1 1 0 .56-.44 1-1 1zm0 8.04c-.54 0-1-.45-1-1s.46-1 1-1c.56 0 1 .45 1 1s-.44 1-1 1zm0 8.04c-.54 0-1-.45-1-1 0-.56.46-1 1-1 .56 0 1 .44 1 1 0 .55-.44 1-1 1zm0 8.03c-.54 0-1-.44-1-1 0-.54.46-1 1-1 .56 0 1 .46 1 1 0 .56-.44 1-1 1zm0 8.05c-.54 0-1-.45-1-1 0-.56.46-1 1-1 .56 0 1 .44 1 1 0 .55-.44 1-1 1zm0 8.03c-.54 0-1-.45-1-1s.46-1 1-1c.56 0 1 .45 1 1s-.44 1-1 1zm0 8.03c-.54 0-1-.43-1-1 0-.54.46-1 1-1 .56 0 1 .46 1 1 0 .57-.44 1-1 1zm0 8.05c-.54 0-1-.45-1-1s.46-1 1-1c.56 0 1 .45 1 1s-.44 1-1 1zm0 8.03c-.54 0-1-.44-1-1 0-.55.46-1 1-1 .56 0 1 .45 1 1 0 .56-.44 1-1 1zm0 8.04c-.54 0-1-.45-1-1s.46-1 1-1c.56 0 1 .45 1 1s-.44 1-1 1zm0 8.03c-.54 0-1-.44-1-1 0-.55.46-1 1-1 .56 0 1 .45 1 1 0 .56-.44 1-1 1zm0 8.04c-.54 0-1-.46-1-1 0-.56.46-1 1-1 .56 0 1 .44 1 1 0 .54-.44 1-1 1zm0 8.02c-.54 0-1-.44-1-1 0-.55.46-1 1-1 .56 0 1 .45 1 1 0 .56-.44 1-1 1zm0 8.04c-.54 0-1-.45-1-1s.46-1 1-1c.56 0 1 .45 1 1s-.44 1-1 1zm0 8.03c-.54 0-1-.45-1-1 0-.56.46-1 1-1 .56 0 1 .44 1 1 0 .55-.44 1-1 1zm0 8.03c-.54 0-1-.45-1-1s.46-1 1-1c.56 0 1 .45 1 1s-.44 1-1 1zm0 8.03c-.54 0-1-.44-1-1 0-.55.46-1 1-1 .56 0 1 .45 1 1 0 .56-.44 1-1 1zm0 8.04c-.54 0-1-.45-1-1s.46-1 1-1c.56 0 1 .45 1 1s-.44 1-1 1zm0 8.03c-.54 0-1-.44-1-1 0-.55.46-1 1-1 .56 0 1 .45 1 1 0 .56-.44 1-1 1zm-2-8.03c-.54 0-1-.45-1-1s.46-1 1-1c.56 0 1 .45 1 1s-.44 1-1 1zm0-8.04c-.54 0-1-.44-1-1 0-.55.46-1 1-1 .56 0 1 .45 1 1 0 .56-.44 1-1 1zm0-8.03c-.54 0-1-.45-1-1s.46-1 1-1c.56 0 1 .45 1 1s-.44 1-1 1zm0-8.04c-.54 0-1-.45-1-1 0-.56.46-1 1-1 .56 0 1 .44 1 1 0 .55-.44 1-1 1zm0-8.04c-.54 0-1-.45-1-1s.46-1 1-1c.56 0 1 .45 1 1s-.44 1-1 1zm0-8.04c-.54 0-1-.44-1-1 0-.55.46-1 1-1 .56 0 1 .45 1 1 0 .56-.44 1-1 1zm0-8.03c-.54 0-1-.46-1-1 0-.56.46-1 1-1 .56 0 1 .44 1 1 0 .54-.44 1-1 1zm0-8.05c-.54 0-1-.44-1-1 0-.55.46-1 1-1 .56 0 1 .45 1 1 0 .56-.44 1-1 1zm0-8.03c-.54 0-1-.45-1-1s.46-1 1-1c.56 0 1 .45 1 1s-.44 1-1 1zm0-8.04c-.54 0-1-.44-1-1 0-.55.46-1 1-1 .56 0 1 .45 1 1 0 .56-.44 1-1 1zm0-8.03c-.54 0-1-.45-1-1s.46-1 1-1c.56 0 1 .45 1 1s-.44 1-1 1zm0-8.04c-.54 0-1-.43-1-1 0-.54.46-1 1-1 .56 0 1 .46 1 1 0 .57-.44 1-1 1zm0-8.02c-.54 0-1-.45-1-1s.46-1 1-1c.56 0 1 .45 1 1s-.44 1-1 1zm0-8.03c-.54 0-1-.45-1-1 0-.56.46-1 1-1 .56 0 1 .44 1 1 0 .55-.44 1-1 1zm0-8.04c-.54 0-1-.44-1-1 0-.54.46-1 1-1 .56 0 1 .46 1 1 0 .56-.44 1-1 1zm0-8.02c-.54 0-1-.45-1-1 0-.56.46-1 1-1 .56 0 1 .44 1 1 0 .55-.44 1-1 1zm0-8.04c-.54 0-1-.45-1-1s.46-1 1-1c.56 0 1 .45 1 1s-.44 1-1 1zm0-8.03c-.54 0-1-.44-1-1 0-.55.46-1 1-1 .56 0 1 .45 1 1 0 .56-.44 1-1 1zm0-8.03c-.54 0-1-.45-1-1s.46-1 1-1c.56 0 1 .45 1 1s-.44 1-1 1zm0-8.03c-.54 0-1-.45-1-1 0-.56.46-1 1-1 .56 0 1 .44 1 1 0 .55-.44 1-1 1zm0-8.04c-.54 0-1-.45-1-1s.46-1 1-1c.56 0 1 .45 1 1s-.44 1-1 1zm0-8.03c-.54 0-1-.45-1-1 0-.56.46-1 1-1 .56 0 1 .44 1 1 0 .55-.44 1-1 1zm0-8.04c-.54 0-1-.45-1-1s.46-1 1-1c.56 0 1 .45 1 1s-.44 1-1 1zm0-8.03c-.54 0-1-.45-1-1 0-.56.46-1 1-1 .56 0 1 .44 1 1 0 .55-.44 1-1 1zm0-8.04c-.54 0-1-.45-1-1s.46-1 1-1c.56 0 1 .45 1 1s-.44 1-1 1zm0-8.03c-.54 0-1-.45-1-1 0-.56.46-1 1-1 .56 0 1 .44 1 1 0 .55-.44 1-1 1zm0-8.04c-.54 0-1-.46-1-1 0-.56.46-1 1-1 .56 0 1 .44 1 1 0 .54-.44 1-1 1zm0-8.04c-.54 0-1-.45-1-1 0-.56.46-1 1-1 .56 0 1 .44 1 1 0 .55-.44 1-1 1zm0-8.04c-.54 0-1-.45-1-1s.46-1 1-1c.56 0 1 .45 1 1s-.44 1-1 1zm0-8.03c-.54 0-1-.46-1-1 0-.56.46-1 1-1 .56 0 1 .44 1 1 0 .54-.44 1-1 1zm0-8.05c-.54 0-1-.45-1-1s.46-1 1-1c.56 0 1 .45 1 1s-.44 1-1 1zm0-8.03c-.54 0-1-.45-1-1s.46-1 1-1c.56 0 1 .45 1 1s-.44 1-1 1zm0-8.04c-.54 0-1-.44-1-1 0-.55.46-1 1-1 .56 0 1 .45 1 1 0 .56-.44 1-1 1zm0-8.03c-.54 0-1-.45-1-1s.46-1 1-1c.56 0 1 .45 1 1s-.44 1-1 1zm0-8.04c-.54 0-1-.43-1-1 0-.54.46-1 1-1 .56 0 1 .46 1 1 0 .57-.44 1-1 1zm0-8.02c-.54 0-1-.45-1-1s.46-1 1-1c.56 0 1 .45 1 1s-.44 1-1 1zm0-8.04c-.54 0-1-.44-1-1 0-.55.46-1 1-1 .56 0 1 .45 1 1 0 .56-.44 1-1 1zm0-8.03c-.54 0-1-.44-1-1 0-.54.46-1 1-1 .56 0 1 .46 1 1 0 .56-.44 1-1 1zm0-8.03c-.54 0-1-.44-1-1 0-.55.46-1 1-1 .56 0 1 .45 1 1 0 .56-.44 1-1 1zm0-8.03c-.54 0-1-.45-1-1s.46-1 1-1c.56 0 1 .45 1 1s-.44 1-1 1zm0-8.04c-.54 0-1-.44-1-1 0-.55.46-1 1-1 .56 0 1 .45 1 1 0 .56-.44 1-1 1zm0-8.03c-.54 0-1-.45-1-1s.46-1 1-1c.56 0 1 .45 1 1s-.44 1-1 1zm0-8.04c-.54 0-1-.44-1-1 0-.55.46-1 1-1 .56 0 1 .45 1 1 0 .56-.44 1-1 1zm0-8.03c-.54 0-1-.45-1-1s.46-1 1-1c.56 0 1 .45 1 1s-.44 1-1 1zm0-8.04c-.54 0-1-.44-1-1 0-.55.46-1 1-1 .56 0 1 .45 1 1 0 .56-.44 1-1 1zm0-8.03c-.54 0-1-.45-1-1s.46-1 1-1c.56 0 1 .45 1 1s-.44 1-1 1zm0-8.04c-.54 0-1-.45-1-1 0-.56.46-1 1-1 .56 0 1 .44 1 1 0 .55-.44 1-1 1zm0-8.04c-.54 0-1-.45-1-1s.46-1 1-1c.56 0 1 .45 1 1s-.44 1-1 1zm0-8.03c-.54 0-1-.45-1-1 0-.56.46-1 1-1 .56 0 1 .44 1 1 0 .55-.44 1-1 1zm0-8.04c-.54 0-1-.46-1-1 0-.56.46-1 1-1 .56 0 1 .44 1 1 0 .54-.44 1-1 1zm0-8.04c-.54 0-1-.45-1-1 0-.56.46-1 1-1 .56 0 1 .44 1 1 0 .55-.44 1-1 1zm0-8.04c-.54 0-1-.45-1-1s.46-1 1-1c.56 0 1 .45 1 1s-.44 1-1 1zm0-8.03c-.54 0-1-.46-1-1 0-.57.46-1 1-1 .56 0 1 .43 1 1 0 .54-.44 1-1 1zm0-8.05c-.54 0-1-.45-1-1s.46-1 1-1c.56 0 1 .45 1 1s-.44 1-1 1zm0-8.03c-.54 0-1-.45-1-1 0-.56.46-1 1-1 .56 0 1 .44 1 1 0 .55-.44 1-1 1zm0-8.04c-.54 0-1-.45-1-1s.46-1 1-1c.56 0 1 .45 1 1s-.44 1-1 1zm0-8.03c-.54 0-1-.45-1-1 0-.56.46-1 1-1 .56 0 1 .44 1 1 0 .55-.44 1-1 1zm0-8.04c-.54 0-1-.44-1-1 0-.54.46-1 1-1 .56 0 1 .46 1 1 0 .56-.44 1-1 1zm0-8.02c-.54 0-1-.45-1-1 0-.56.46-1 1-1 .56 0 1 .44 1 1 0 .55-.44 1-1 1zm0-8.04c-.54 0-1-.45-1-1s.46-1 1-1c.56 0 1 .45 1 1s-.44 1-1 1zm0-8.03c-.54 0-1-.44-1-1 0-.55.46-1 1-1 .56 0 1 .45 1 1 0 .56-.44 1-1 1zm0-8.03c-.54 0-1-.45-1-1s.46-1 1-1c.56 0 1 .45 1 1s-.44 1-1 1zm0-8.03c-.54 0-1-.45-1-1 0-.56.46-1 1-1 .56 0 1 .44 1 1 0 .55-.44 1-1 1zm0-8.04c-.54 0-1-.45-1-1s.46-1 1-1c.56 0 1 .45 1 1s-.44 1-1 1zm0-8.03c-.54 0-1-.45-1-1 0-.56.46-1 1-1 .56 0 1 .44 1 1 0 .55-.44 1-1 1zm0-8.04c-.54 0-1-.45-1-1s.46-1 1-1c.56 0 1 .45 1 1s-.44 1-1 1zm0-8.03c-.54 0-1-.45-1-1s.46-1 1-1c.56 0 1 .45 1 1s-.44 1-1 1zm0-8.04c-.54 0-1-.45-1-1s.46-1 1-1c.56 0 1 .45 1 1s-.44 1-1 1zm0-8.03c-.54 0-1-.45-1-1s.46-1 1-1c.56 0 1 .45 1 1s-.44 1-1 1zm0-8.04c-.54 0-1-.45-1-1 0-.56.46-1 1-1 .56 0 1 .44 1 1 0 .55-.44 1-1 1zm0-8.04c-.54 0-1-.45-1-1s.46-1 1-1c.56 0 1 .45 1 1s-.44 1-1 1zm0-8.04c-.54 0-1-.44-1-1 0-.55.46-1 1-1 .56 0 1 .45 1 1 0 .56-.44 1-1 1zm0-8.03c-.54 0-1-.46-1-1 0-.56.46-1 1-1 .56 0 1 .44 1 1 0 .54-.44 1-1 1zm0-8.05c-.54 0-1-.44-1-1 0-.55.46-1 1-1 .56 0 1 .45 1 1 0 .56-.44 1-1 1zm0-8.03c-.54 0-1-.45-1-1s.46-1 1-1c.56 0 1 .45 1 1s-.44 1-1 1zm0-8.04c-.54 0-1-.44-1-1 0-.55.46-1 1-1 .56 0 1 .45 1 1 0 .56-.44 1-1 1zm0-8.03c-.54 0-1-.45-1-1s.46-1 1-1c.56 0 1 .45 1 1s-.44 1-1 1zm0-8.04c-.54 0-1-.43-1-1 0-.54.46-1 1-1 .56 0 1 .46 1 1 0 .57-.44 1-1 1zm0-8.02c-.54 0-1-.45-1-1s.46-1 1-1c.56 0 1 .45 1 1s-.44 1-1 1zm0-8.04c-.54 0-1-.44-1-1 0-.55.46-1 1-1 .56 0 1 .45 1 1 0 .56-.44 1-1 1zm0-8.03c-.54 0-1-.44-1-1 0-.54.46-1 1-1 .56 0 1 .46 1 1 0 .56-.44 1-1 1zm0-8.03c-.54 0-1-.44-1-1 0-.55.46-1 1-1 .56 0 1 .45 1 1 0 .56-.44 1-1 1zm0-8.03c-.54 0-1-.45-1-1s.46-1 1-1c.56 0 1 .45 1 1s-.44 1-1 1zm0-8.04c-.54 0-1-.44-1-1 0-.55.46-1 1-1 .56 0 1 .45 1 1 0 .56-.44 1-1 1zm0-8.03c-.54 0-1-.45-1-1s.46-1 1-1c.56 0 1 .45 1 1s-.44 1-1 1zm0-8.03c-.54 0-1-.45-1-1 0-.56.46-1 1-1 .56 0 1 .44 1 1 0 .55-.44 1-1 1zm0-8.04c-.54 0-1-.45-1-1s.46-1 1-1c.56 0 1 .45 1 1s-.44 1-1 1z" fill="#5e5e5e"/><path d="M3193.8-1478a1 1 0 0 1 1 1v689.03a1 1 0 0 1-1 1 1 1 0 0 1-1-1V-1477a1 1 0 0 1 1-1z" fill="none"/><path d="M3193.8-1477c-.54 0-1-.45-1-1s.46-1 1-1c.56 0 1 .45 1 1s-.44 1-1 1zm1 9c-.54 0-1-.44-1-1 0-.54.46-1 1-1 .56 0 1 .46 1 1 0 .56-.44 1-1 1zm0 8.02c-.54 0-1-.44-1-1 0-.55.46-1 1-1 .56 0 1 .45 1 1 0 .56-.44 1-1 1zm0 8.02c-.54 0-1-.45-1-1 0-.56.46-1 1-1 .56 0 1 .44 1 1 0 .55-.44 1-1 1zm0 8c-.54 0-1-.44-1-1 0-.54.46-1 1-1 .56 0 1 .46 1 1 0 .56-.44 1-1 1zm0 8.02c-.54 0-1-.45-1-1s.46-1 1-1c.56 0 1 .45 1 1s-.44 1-1 1zm0 8c-.54 0-1-.44-1-1 0-.54.46-1 1-1 .56 0 1 .46 1 1 0 .56-.44 1-1 1zm0 8.02c-.54 0-1-.44-1-1 0-.55.46-1 1-1 .56 0 1 .45 1 1 0 .56-.44 1-1 1zm0 8.02c-.54 0-1-.45-1-1 0-.56.46-1 1-1 .56 0 1 .44 1 1 0 .55-.44 1-1 1zm0 8c-.54 0-1-.44-1-1 0-.54.46-1 1-1 .56 0 1 .46 1 1 0 .56-.44 1-1 1zm0 8.02c-.54 0-1-.45-1-1s.46-1 1-1c.56 0 1 .45 1 1s-.44 1-1 1zm0 8c-.54 0-1-.44-1-1 0-.54.46-1 1-1 .56 0 1 .46 1 1 0 .56-.44 1-1 1zm0 8.02c-.54 0-1-.44-1-1 0-.55.46-1 1-1 .56 0 1 .45 1 1 0 .56-.44 1-1 1zm0 8.02c-.54 0-1-.45-1-1 0-.56.46-1 1-1 .56 0 1 .44 1 1 0 .55-.44 1-1 1zm0 8c-.54 0-1-.44-1-1 0-.54.46-1 1-1 .56 0 1 .46 1 1 0 .56-.44 1-1 1zm0 8.02c-.54 0-1-.45-1-1s.46-1 1-1c.56 0 1 .45 1 1s-.44 1-1 1zm0 8c-.54 0-1-.44-1-1 0-.54.46-1 1-1 .56 0 1 .46 1 1 0 .56-.44 1-1 1zm0 8.02c-.54 0-1-.44-1-1 0-.55.46-1 1-1 .56 0 1 .45 1 1 0 .56-.44 1-1 1zm0 8.02c-.54 0-1-.45-1-1 0-.56.46-1 1-1 .56 0 1 .44 1 1 0 .55-.44 1-1 1zm0 8c-.54 0-1-.44-1-1 0-.54.46-1 1-1 .56 0 1 .46 1 1 0 .56-.44 1-1 1zm0 8.02c-.54 0-1-.45-1-1s.46-1 1-1c.56 0 1 .45 1 1s-.44 1-1 1zm0 8c-.54 0-1-.44-1-1 0-.54.46-1 1-1 .56 0 1 .46 1 1 0 .56-.44 1-1 1zm0 8.02c-.54 0-1-.44-1-1 0-.55.46-1 1-1 .56 0 1 .45 1 1 0 .56-.44 1-1 1zm0 8.02c-.54 0-1-.45-1-1 0-.56.46-1 1-1 .56 0 1 .44 1 1 0 .55-.44 1-1 1zm0 8c-.54 0-1-.44-1-1 0-.54.46-1 1-1 .56 0 1 .46 1 1 0 .56-.44 1-1 1zm0 8.02c-.54 0-1-.45-1-1s.46-1 1-1c.56 0 1 .45 1 1s-.44 1-1 1zm0 8c-.54 0-1-.44-1-1 0-.54.46-1 1-1 .56 0 1 .46 1 1 0 .56-.44 1-1 1zm0 8.02c-.54 0-1-.44-1-1 0-.55.46-1 1-1 .56 0 1 .45 1 1 0 .56-.44 1-1 1zm0 8.02c-.54 0-1-.45-1-1 0-.56.46-1 1-1 .56 0 1 .44 1 1 0 .55-.44 1-1 1zm0 8c-.54 0-1-.44-1-1 0-.54.46-1 1-1 .56 0 1 .46 1 1 0 .56-.44 1-1 1zm0 8.02c-.54 0-1-.45-1-1s.46-1 1-1c.56 0 1 .45 1 1s-.44 1-1 1zm0 8c-.54 0-1-.44-1-1 0-.54.46-1 1-1 .56 0 1 .46 1 1 0 .56-.44 1-1 1zm0 8.02c-.54 0-1-.44-1-1 0-.55.46-1 1-1 .56 0 1 .45 1 1 0 .56-.44 1-1 1zm0 8.02c-.54 0-1-.45-1-1 0-.56.46-1 1-1 .56 0 1 .44 1 1 0 .55-.44 1-1 1zm0 8c-.54 0-1-.44-1-1 0-.54.46-1 1-1 .56 0 1 .46 1 1 0 .56-.44 1-1 1zm0 8.02c-.54 0-1-.45-1-1s.46-1 1-1c.56 0 1 .45 1 1s-.44 1-1 1zm0 8c-.54 0-1-.44-1-1 0-.54.46-1 1-1 .56 0 1 .46 1 1 0 .56-.44 1-1 1zm0 8.02c-.54 0-1-.44-1-1 0-.55.46-1 1-1 .56 0 1 .45 1 1 0 .56-.44 1-1 1zm0 8.02c-.54 0-1-.45-1-1 0-.56.46-1 1-1 .56 0 1 .44 1 1 0 .55-.44 1-1 1zm0 8c-.54 0-1-.44-1-1 0-.54.46-1 1-1 .56 0 1 .46 1 1 0 .56-.44 1-1 1zm0 8.02c-.54 0-1-.45-1-1s.46-1 1-1c.56 0 1 .45 1 1s-.44 1-1 1zm0 8c-.54 0-1-.43-1-1 0-.54.46-1 1-1 .56 0 1 .46 1 1 0 .57-.44 1-1 1zm0 8.02c-.54 0-1-.44-1-1 0-.55.46-1 1-1 .56 0 1 .45 1 1 0 .56-.44 1-1 1zm0 8.02c-.54 0-1-.45-1-1 0-.56.46-1 1-1 .56 0 1 .44 1 1 0 .55-.44 1-1 1zm0 8c-.54 0-1-.44-1-1 0-.54.46-1 1-1 .56 0 1 .46 1 1 0 .56-.44 1-1 1zm0 8.02c-.54 0-1-.45-1-1s.46-1 1-1c.56 0 1 .45 1 1s-.44 1-1 1zm0 8c-.54 0-1-.43-1-1 0-.54.46-1 1-1 .56 0 1 .46 1 1 0 .57-.44 1-1 1zm0 8.02c-.54 0-1-.44-1-1 0-.55.46-1 1-1 .56 0 1 .45 1 1 0 .56-.44 1-1 1zm0 8.02c-.54 0-1-.45-1-1 0-.56.46-1 1-1 .56 0 1 .44 1 1 0 .55-.44 1-1 1zm0 8c-.54 0-1-.44-1-1 0-.54.46-1 1-1 .56 0 1 .46 1 1 0 .56-.44 1-1 1zm0 8.02c-.54 0-1-.45-1-1s.46-1 1-1c.56 0 1 .45 1 1s-.44 1-1 1zm0 8c-.54 0-1-.43-1-1 0-.54.46-1 1-1 .56 0 1 .46 1 1 0 .57-.44 1-1 1zm0 8.02c-.54 0-1-.44-1-1 0-.55.46-1 1-1 .56 0 1 .45 1 1 0 .56-.44 1-1 1zm0 8.02c-.54 0-1-.45-1-1 0-.56.46-1 1-1 .56 0 1 .44 1 1 0 .55-.44 1-1 1zm0 8c-.54 0-1-.44-1-1 0-.54.46-1 1-1 .56 0 1 .46 1 1 0 .56-.44 1-1 1zm0 8.02c-.54 0-1-.45-1-1s.46-1 1-1c.56 0 1 .45 1 1s-.44 1-1 1zm0 8c-.54 0-1-.43-1-1 0-.54.46-1 1-1 .56 0 1 .46 1 1 0 .57-.44 1-1 1zm0 8.02c-.54 0-1-.44-1-1 0-.55.46-1 1-1 .56 0 1 .45 1 1 0 .56-.44 1-1 1zm0 8.02c-.54 0-1-.45-1-1 0-.56.46-1 1-1 .56 0 1 .44 1 1 0 .55-.44 1-1 1zm0 8c-.54 0-1-.44-1-1 0-.54.46-1 1-1 .56 0 1 .46 1 1 0 .56-.44 1-1 1zm0 8.02c-.54 0-1-.45-1-1s.46-1 1-1c.56 0 1 .45 1 1s-.44 1-1 1zm0 8c-.54 0-1-.43-1-1 0-.54.46-1 1-1 .56 0 1 .46 1 1 0 .57-.44 1-1 1zm0 8.02c-.54 0-1-.44-1-1 0-.55.46-1 1-1 .56 0 1 .45 1 1 0 .56-.44 1-1 1zm0 8.02c-.54 0-1-.45-1-1 0-.56.46-1 1-1 .56 0 1 .44 1 1 0 .55-.44 1-1 1zm0 8c-.54 0-1-.44-1-1 0-.54.46-1 1-1 .56 0 1 .46 1 1 0 .56-.44 1-1 1zm0 8.02c-.54 0-1-.45-1-1s.46-1 1-1c.56 0 1 .45 1 1s-.44 1-1 1zm0 8c-.54 0-1-.43-1-1 0-.54.46-1 1-1 .56 0 1 .46 1 1 0 .57-.44 1-1 1zm0 8.03c-.54 0-1-.44-1-1 0-.55.46-1 1-1 .56 0 1 .45 1 1 0 .56-.44 1-1 1zm0 8.02c-.54 0-1-.45-1-1 0-.56.46-1 1-1 .56 0 1 .44 1 1 0 .55-.44 1-1 1zm0 8c-.54 0-1-.44-1-1 0-.54.46-1 1-1 .56 0 1 .46 1 1 0 .56-.44 1-1 1zm0 8.02c-.54 0-1-.45-1-1s.46-1 1-1c.56 0 1 .45 1 1s-.44 1-1 1zm0 8c-.54 0-1-.43-1-1 0-.54.46-1 1-1 .56 0 1 .46 1 1 0 .57-.44 1-1 1zm0 8.03c-.54 0-1-.45-1-1 0-.56.46-1 1-1 .56 0 1 .44 1 1 0 .55-.44 1-1 1zm0 8c-.54 0-1-.44-1-1 0-.55.46-1 1-1 .56 0 1 .45 1 1 0 .56-.44 1-1 1zm0 8.02c-.54 0-1-.46-1-1 0-.56.46-1 1-1 .56 0 1 .44 1 1 0 .54-.44 1-1 1zm0 8c-.54 0-1-.45-1-1s.46-1 1-1c.56 0 1 .45 1 1s-.44 1-1 1zm0 8c-.54 0-1-.43-1-1 0-.54.46-1 1-1 .56 0 1 .46 1 1 0 .57-.44 1-1 1zm0 8.03c-.54 0-1-.45-1-1 0-.56.46-1 1-1 .56 0 1 .44 1 1 0 .55-.44 1-1 1zm0 8c-.54 0-1-.44-1-1 0-.55.46-1 1-1 .56 0 1 .45 1 1 0 .56-.44 1-1 1zm0 8.02c-.54 0-1-.45-1-1s.46-1 1-1c.56 0 1 .45 1 1s-.44 1-1 1zm0 8c-.54 0-1-.44-1-1 0-.54.46-1 1-1 .56 0 1 .46 1 1 0 .56-.44 1-1 1zm0 8.02c-.54 0-1-.44-1-1 0-.55.46-1 1-1 .56 0 1 .45 1 1 0 .56-.44 1-1 1zm0 8.02c-.54 0-1-.46-1-1 0-.57.46-1 1-1 .56 0 1 .43 1 1 0 .54-.44 1-1 1zm0 8c-.54 0-1-.45-1-1 0-.56.46-1 1-1 .56 0 1 .44 1 1 0 .55-.44 1-1 1zm0 8c-.54 0-1-.44-1-1 0-.54.46-1 1-1 .56 0 1 .46 1 1 0 .56-.44 1-1 1zm0 8.02c-.54 0-1-.45-1-1s.46-1 1-1c.56 0 1 .45 1 1s-.44 1-1 1zm0 8c-.54 0-1-.43-1-1 0-.54.46-1 1-1 .56 0 1 .46 1 1 0 .57-.44 1-1 1zm-2-8c-.54 0-1-.45-1-1s.46-1 1-1c.56 0 1 .45 1 1s-.44 1-1 1zm0-8c-.54 0-1-.46-1-1 0-.56.46-1 1-1 .56 0 1 .44 1 1 0 .54-.44 1-1 1zm0-8.02c-.54 0-1-.45-1-1 0-.56.46-1 1-1 .56 0 1 .44 1 1 0 .55-.44 1-1 1zm0-8c-.54 0-1-.46-1-1 0-.57.46-1 1-1 .56 0 1 .43 1 1 0 .54-.44 1-1 1zm0-8.03c-.54 0-1-.44-1-1 0-.55.46-1 1-1 .56 0 1 .45 1 1 0 .56-.44 1-1 1zm0-8c-.54 0-1-.46-1-1 0-.56.46-1 1-1 .56 0 1 .44 1 1 0 .54-.44 1-1 1zm0-8.02c-.54 0-1-.45-1-1s.46-1 1-1c.56 0 1 .45 1 1s-.44 1-1 1zm0-8c-.54 0-1-.46-1-1 0-.57.46-1 1-1 .56 0 1 .43 1 1 0 .54-.44 1-1 1zm0-8.02c-.54 0-1-.45-1-1 0-.56.46-1 1-1 .56 0 1 .44 1 1 0 .55-.44 1-1 1zm0-8.02c-.54 0-1-.43-1-1 0-.54.46-1 1-1 .56 0 1 .46 1 1 0 .57-.44 1-1 1zm0-8c-.54 0-1-.45-1-1s.46-1 1-1c.56 0 1 .45 1 1s-.44 1-1 1zm0-8c-.54 0-1-.46-1-1 0-.56.46-1 1-1 .56 0 1 .44 1 1 0 .54-.44 1-1 1zm0-8.02c-.54 0-1-.45-1-1 0-.56.46-1 1-1 .56 0 1 .44 1 1 0 .55-.44 1-1 1zm0-8c-.54 0-1-.46-1-1 0-.57.46-1 1-1 .56 0 1 .43 1 1 0 .54-.44 1-1 1zm0-8.03c-.54 0-1-.44-1-1 0-.55.46-1 1-1 .56 0 1 .45 1 1 0 .56-.44 1-1 1zm0-8c-.54 0-1-.46-1-1 0-.56.46-1 1-1 .56 0 1 .44 1 1 0 .54-.44 1-1 1zm0-8.02c-.54 0-1-.45-1-1s.46-1 1-1c.56 0 1 .45 1 1s-.44 1-1 1zm0-8c-.54 0-1-.46-1-1 0-.57.46-1 1-1 .56 0 1 .43 1 1 0 .54-.44 1-1 1zm0-8.02c-.54 0-1-.44-1-1 0-.55.46-1 1-1 .56 0 1 .45 1 1 0 .56-.44 1-1 1zm0-8c-.54 0-1-.45-1-1 0-.56.46-1 1-1 .56 0 1 .44 1 1 0 .55-.44 1-1 1zm0-8.02c-.54 0-1-.45-1-1s.46-1 1-1c.56 0 1 .45 1 1s-.44 1-1 1zm0-8c-.54 0-1-.46-1-1 0-.56.46-1 1-1 .56 0 1 .44 1 1 0 .54-.44 1-1 1zm0-8.02c-.54 0-1-.45-1-1 0-.56.46-1 1-1 .56 0 1 .44 1 1 0 .55-.44 1-1 1zm0-8.02c-.54 0-1-.44-1-1 0-.55.46-1 1-1 .56 0 1 .45 1 1 0 .56-.44 1-1 1zm0-8c-.54 0-1-.45-1-1 0-.56.46-1 1-1 .56 0 1 .44 1 1 0 .55-.44 1-1 1zm0-8.02c-.54 0-1-.45-1-1s.46-1 1-1c.56 0 1 .45 1 1s-.44 1-1 1zm0-8c-.54 0-1-.46-1-1 0-.56.46-1 1-1 .56 0 1 .44 1 1 0 .54-.44 1-1 1zm0-8.02c-.54 0-1-.45-1-1 0-.56.46-1 1-1 .56 0 1 .44 1 1 0 .55-.44 1-1 1zm0-8.02c-.54 0-1-.44-1-1 0-.55.46-1 1-1 .56 0 1 .45 1 1 0 .56-.44 1-1 1zm0-8c-.54 0-1-.45-1-1 0-.56.46-1 1-1 .56 0 1 .44 1 1 0 .55-.44 1-1 1zm0-8.02c-.54 0-1-.45-1-1s.46-1 1-1c.56 0 1 .45 1 1s-.44 1-1 1zm0-8c-.54 0-1-.46-1-1 0-.56.46-1 1-1 .56 0 1 .44 1 1 0 .54-.44 1-1 1zm0-8.02c-.54 0-1-.45-1-1 0-.56.46-1 1-1 .56 0 1 .44 1 1 0 .55-.44 1-1 1zm0-8.02c-.54 0-1-.44-1-1 0-.55.46-1 1-1 .56 0 1 .45 1 1 0 .56-.44 1-1 1zm0-8c-.54 0-1-.45-1-1 0-.56.46-1 1-1 .56 0 1 .44 1 1 0 .55-.44 1-1 1zm0-8.02c-.54 0-1-.45-1-1s.46-1 1-1c.56 0 1 .45 1 1s-.44 1-1 1zm0-8c-.54 0-1-.46-1-1 0-.56.46-1 1-1 .56 0 1 .44 1 1 0 .54-.44 1-1 1zm0-8.02c-.54 0-1-.45-1-1 0-.56.46-1 1-1 .56 0 1 .44 1 1 0 .55-.44 1-1 1zm0-8.02c-.54 0-1-.44-1-1 0-.55.46-1 1-1 .56 0 1 .45 1 1 0 .56-.44 1-1 1zm0-8c-.54 0-1-.45-1-1 0-.56.46-1 1-1 .56 0 1 .44 1 1 0 .55-.44 1-1 1zm0-8.02c-.54 0-1-.45-1-1s.46-1 1-1c.56 0 1 .45 1 1s-.44 1-1 1zm0-8c-.54 0-1-.46-1-1 0-.56.46-1 1-1 .56 0 1 .44 1 1 0 .54-.44 1-1 1zm0-8.02c-.54 0-1-.45-1-1 0-.56.46-1 1-1 .56 0 1 .44 1 1 0 .55-.44 1-1 1zm0-8.02c-.54 0-1-.44-1-1 0-.55.46-1 1-1 .56 0 1 .45 1 1 0 .56-.44 1-1 1zm0-8c-.54 0-1-.45-1-1 0-.56.46-1 1-1 .56 0 1 .44 1 1 0 .55-.44 1-1 1zm0-8.02c-.54 0-1-.45-1-1s.46-1 1-1c.56 0 1 .45 1 1s-.44 1-1 1zm0-8c-.54 0-1-.46-1-1 0-.56.46-1 1-1 .56 0 1 .44 1 1 0 .54-.44 1-1 1zm0-8.02c-.54 0-1-.45-1-1 0-.56.46-1 1-1 .56 0 1 .44 1 1 0 .55-.44 1-1 1zm0-8.02c-.54 0-1-.44-1-1 0-.55.46-1 1-1 .56 0 1 .45 1 1 0 .56-.44 1-1 1zm0-8c-.54 0-1-.46-1-1 0-.56.46-1 1-1 .56 0 1 .44 1 1 0 .54-.44 1-1 1zm0-8.02c-.54 0-1-.45-1-1s.46-1 1-1c.56 0 1 .45 1 1s-.44 1-1 1zm0-8c-.54 0-1-.46-1-1 0-.56.46-1 1-1 .56 0 1 .44 1 1 0 .54-.44 1-1 1zm0-8.02c-.54 0-1-.45-1-1 0-.56.46-1 1-1 .56 0 1 .44 1 1 0 .55-.44 1-1 1zm0-8.02c-.54 0-1-.44-1-1 0-.55.46-1 1-1 .56 0 1 .45 1 1 0 .56-.44 1-1 1zm0-8c-.54 0-1-.46-1-1 0-.56.46-1 1-1 .56 0 1 .44 1 1 0 .54-.44 1-1 1zm0-8.02c-.54 0-1-.45-1-1s.46-1 1-1c.56 0 1 .45 1 1s-.44 1-1 1zm0-8c-.54 0-1-.46-1-1 0-.56.46-1 1-1 .56 0 1 .44 1 1 0 .54-.44 1-1 1zm0-8.02c-.54 0-1-.45-1-1 0-.56.46-1 1-1 .56 0 1 .44 1 1 0 .55-.44 1-1 1zm0-8.02c-.54 0-1-.44-1-1 0-.55.46-1 1-1 .56 0 1 .45 1 1 0 .56-.44 1-1 1zm0-8c-.54 0-1-.46-1-1 0-.56.46-1 1-1 .56 0 1 .44 1 1 0 .54-.44 1-1 1zm0-8.02c-.54 0-1-.45-1-1s.46-1 1-1c.56 0 1 .45 1 1s-.44 1-1 1zm0-8c-.54 0-1-.46-1-1 0-.56.46-1 1-1 .56 0 1 .44 1 1 0 .54-.44 1-1 1zm0-8.02c-.54 0-1-.45-1-1 0-.56.46-1 1-1 .56 0 1 .44 1 1 0 .55-.44 1-1 1zm0-8.02c-.54 0-1-.44-1-1 0-.55.46-1 1-1 .56 0 1 .45 1 1 0 .56-.44 1-1 1zm0-8c-.54 0-1-.46-1-1 0-.56.46-1 1-1 .56 0 1 .44 1 1 0 .54-.44 1-1 1zm0-8.02c-.54 0-1-.45-1-1s.46-1 1-1c.56 0 1 .45 1 1s-.44 1-1 1zm0-8c-.54 0-1-.46-1-1 0-.56.46-1 1-1 .56 0 1 .44 1 1 0 .54-.44 1-1 1zm0-8.02c-.54 0-1-.45-1-1 0-.56.46-1 1-1 .56 0 1 .44 1 1 0 .55-.44 1-1 1zm0-8.02c-.54 0-1-.44-1-1 0-.55.46-1 1-1 .56 0 1 .45 1 1 0 .56-.44 1-1 1zm0-8c-.54 0-1-.46-1-1 0-.56.46-1 1-1 .56 0 1 .44 1 1 0 .54-.44 1-1 1zm0-8.02c-.54 0-1-.45-1-1s.46-1 1-1c.56 0 1 .45 1 1s-.44 1-1 1zm0-8c-.54 0-1-.46-1-1 0-.56.46-1 1-1 .56 0 1 .44 1 1 0 .54-.44 1-1 1zm0-8.02c-.54 0-1-.45-1-1 0-.56.46-1 1-1 .56 0 1 .44 1 1 0 .55-.44 1-1 1zm0-8.02c-.54 0-1-.44-1-1 0-.55.46-1 1-1 .56 0 1 .45 1 1 0 .56-.44 1-1 1zm0-8c-.54 0-1-.46-1-1 0-.56.46-1 1-1 .56 0 1 .44 1 1 0 .54-.44 1-1 1zm0-8.02c-.54 0-1-.45-1-1s.46-1 1-1c.56 0 1 .45 1 1s-.44 1-1 1zm0-8c-.54 0-1-.46-1-1 0-.56.46-1 1-1 .56 0 1 .44 1 1 0 .54-.44 1-1 1zm0-8.02c-.54 0-1-.45-1-1 0-.56.46-1 1-1 .56 0 1 .44 1 1 0 .55-.44 1-1 1zm0-8.02c-.54 0-1-.44-1-1 0-.55.46-1 1-1 .56 0 1 .45 1 1 0 .56-.44 1-1 1zm0-8c-.54 0-1-.46-1-1 0-.56.46-1 1-1 .56 0 1 .44 1 1 0 .54-.44 1-1 1zm0-8.02c-.54 0-1-.45-1-1s.46-1 1-1c.56 0 1 .45 1 1s-.44 1-1 1zm0-8c-.54 0-1-.46-1-1 0-.56.46-1 1-1 .56 0 1 .44 1 1 0 .54-.44 1-1 1zm0-8.02c-.54 0-1-.45-1-1 0-.56.46-1 1-1 .56 0 1 .44 1 1 0 .55-.44 1-1 1zm0-8.02c-.54 0-1-.44-1-1 0-.55.46-1 1-1 .56 0 1 .45 1 1 0 .56-.44 1-1 1zm0-8c-.54 0-1-.46-1-1 0-.56.46-1 1-1 .56 0 1 .44 1 1 0 .54-.44 1-1 1zm0-8.02c-.54 0-1-.45-1-1s.46-1 1-1c.56 0 1 .45 1 1s-.44 1-1 1z" fill="#5e5e5e"/><path d="M3093.8-1222v-98.5" stroke="#5e5e5e" stroke-width="2" fill="none"/><path d="M3094.8-1220.94l-.98-.06-1 .04v-1.07h2z" stroke="#5e5e5e" stroke-width=".05" fill="#5e5e5e"/><path d="M3093.8-1335.76l4.65 14.26h-9.27z" stroke="#5e5e5e" stroke-width="2" fill="#5e5e5e"/><path d="M3293.8-1222v-98.5" stroke="#5e5e5e" stroke-width="2" fill="none"/><path d="M3294.8-1220.94l-.98-.06-1 .04v-1.07h2z" stroke="#5e5e5e" stroke-width=".05" fill="#5e5e5e"/><path d="M3293.8-1335.76l4.65 14.26h-9.27z" stroke="#5e5e5e" stroke-width="2" fill="#5e5e5e"/><path d="M2884.05-876h45.5v52.67h-45.5z" fill="#fff" fill-opacity="0"/><use xlink:href="#c" transform="matrix(1,0,0,1,2889.0489716617917,-871) translate(0.24691358024691112 16.90972222222222)"/><use xlink:href="#d" transform="matrix(1,0,0,1,2889.0489716617917,-871) translate(10.123456790123456 16.90972222222222)"/><use xlink:href="#e" transform="matrix(1,0,0,1,2889.0489716617917,-871) translate(20.938271604938272 16.90972222222222)"/><use xlink:href="#f" transform="matrix(1,0,0,1,2889.0489716617917,-871) translate(0 38.24305555555556)"/><path d="M3274.8-876h64v74h-64z" fill="#fff" fill-opacity="0"/><use xlink:href="#c" transform="matrix(1,0,0,1,3279.802058081544,-871) translate(6.9999999999999964 26.22222222222222)"/><use xlink:href="#g" transform="matrix(1,0,0,1,3279.802058081544,-871) translate(16.87654320987654 26.22222222222222)"/><use xlink:href="#e" transform="matrix(1,0,0,1,3279.802058081544,-871) translate(32.18518518518519 26.22222222222222)"/><use xlink:href="#f" transform="matrix(1,0,0,1,3279.802058081544,-871) translate(0 47.55555555555556)"/><path d="M3084.05-885.03h45.5v52.66h-45.5z" fill="#fff" fill-opacity="0"/><use xlink:href="#h" transform="matrix(1,0,0,1,3089.0489716617917,-880.0329614828029) translate(15.530864197530864 16.90972222222222)"/><use xlink:href="#f" transform="matrix(1,0,0,1,3089.0489716617917,-880.0329614828029) translate(0 38.24305555555556)"/><path d="M2986.8-854.03a6 6 0 0 1 6-6h228a6 6 0 0 1 6 6v48a6 6 0 0 1-6 6h-228a6 6 0 0 1-6-6z" stroke="#000" stroke-opacity="0" stroke-width="2" fill="#fff" fill-opacity="0"/><use xlink:href="#i" transform="matrix(1,0,0,1,2991.802058081544,-855.0329614828029) translate(85.96296296296296 30.708333333333332)"/><path d="M2526-1156.6a6 6 0 0 1-6-6v-228a6 6 0 0 1 6-6h48a6 6 0 0 1 6 6v228a6 6 0 0 1-6 6z" stroke="#000" stroke-opacity="0" stroke-width="2" fill="#fff" fill-opacity="0"/><use xlink:href="#j" transform="matrix(6.123233995736766e-17,-1,1,6.123233995736766e-17,2525,-1161.5913487325074) translate(64.66666666666669 30.708333333333332)"/><path d="M2574.5-1295.97h45.5v52.67h-45.5z" fill="#fff" fill-opacity="0"/><use xlink:href="#k" transform="matrix(1,0,0,1,2579.4938271604938,-1290.967038517197) translate(-6.197530864197532 25.055555555555557)"/><path d="M2871.06-1552a8 8 0 0 1 8-8h224a8 8 0 0 1 8 8v44a8 8 0 0 1-8 8h-224a8 8 0 0 1-8-8z" stroke="#000" stroke-opacity="0" fill="#fff" fill-opacity="0"/><use xlink:href="#l" transform="matrix(1,0,0,1,2876.058191162776,-1555) translate(66.38611111111112 29.10833333333333)"/><path d="M2501-1093.97a1 1 0 0 1 1-1h906a1 1 0 0 1 1 1 1 1 0 0 1-1 1h-906a1 1 0 0 1-1-1z" fill="none"/><path d="M2502-1093.97c0 .56-.45 1-1 1s-1-.44-1-1c0-.55.45-1 1-1s1 .45 1 1zm9.02-1c0 .56-.45 1-1 1s-1-.44-1-1c0-.55.45-1 1-1s1 .45 1 1zm8 0c0 .56-.43 1-1 1-.54 0-1-.44-1-1 0-.55.46-1 1-1 .57 0 1 .45 1 1zm8.03 0c0 .56-.45 1-1 1s-1-.44-1-1c0-.55.45-1 1-1s1 .45 1 1zm8.02 0c0 .56-.45 1-1 1s-1-.44-1-1c0-.55.45-1 1-1s1 .45 1 1zm8.02 0c0 .56-.46 1-1 1-.56 0-1-.44-1-1 0-.55.44-1 1-1 .54 0 1 .45 1 1zm8 0c0 .56-.44 1-1 1-.55 0-1-.44-1-1 0-.55.45-1 1-1 .56 0 1 .45 1 1zm8.02 0c0 .56-.44 1-1 1-.55 0-1-.44-1-1 0-.55.45-1 1-1 .56 0 1 .45 1 1zm8.02 0c0 .56-.45 1-1 1s-1-.44-1-1c0-.55.45-1 1-1s1 .45 1 1zm8.02 0c0 .56-.45 1-1 1s-1-.44-1-1c0-.55.45-1 1-1s1 .45 1 1zm8.02 0c0 .56-.45 1-1 1s-1-.44-1-1c0-.55.45-1 1-1s1 .45 1 1zm8.02 0c0 .56-.45 1-1 1-.56 0-1-.44-1-1 0-.55.44-1 1-1 .55 0 1 .45 1 1zm8 0c0 .56-.43 1-1 1-.54 0-1-.44-1-1 0-.55.46-1 1-1 .57 0 1 .45 1 1zm8.03 0c0 .56-.45 1-1 1s-1-.44-1-1c0-.55.45-1 1-1s1 .45 1 1zm8.02 0c0 .56-.45 1-1 1s-1-.44-1-1c0-.55.45-1 1-1s1 .45 1 1zm8 0c0 .56-.43 1-1 1-.54 0-1-.44-1-1 0-.55.46-1 1-1 .57 0 1 .45 1 1zm8.03 0c0 .56-.45 1-1 1s-1-.44-1-1c0-.55.45-1 1-1s1 .45 1 1zm8.02 0c0 .56-.45 1-1 1s-1-.44-1-1c0-.55.45-1 1-1s1 .45 1 1zm8.02 0c0 .56-.45 1-1 1s-1-.44-1-1c0-.55.45-1 1-1s1 .45 1 1zm8.02 0c0 .56-.45 1-1 1-.56 0-1-.44-1-1 0-.55.44-1 1-1 .55 0 1 .45 1 1zm8 0c0 .56-.43 1-1 1-.54 0-1-.44-1-1 0-.55.46-1 1-1 .57 0 1 .45 1 1zm8.03 0c0 .56-.45 1-1 1s-1-.44-1-1c0-.55.45-1 1-1s1 .45 1 1zm8.02 0c0 .56-.46 1-1 1-.56 0-1-.44-1-1 0-.55.44-1 1-1 .54 0 1 .45 1 1zm8 0c0 .56-.44 1-1 1-.55 0-1-.44-1-1 0-.55.45-1 1-1 .56 0 1 .45 1 1zm8.03 0c0 .56-.45 1-1 1-.56 0-1-.44-1-1 0-.55.44-1 1-1 .55 0 1 .45 1 1zm8 0c0 .56-.43 1-1 1-.54 0-1-.44-1-1 0-.55.46-1 1-1 .57 0 1 .45 1 1zm8.03 0c0 .56-.45 1-1 1s-1-.44-1-1c0-.55.45-1 1-1s1 .45 1 1zm8.02 0c0 .56-.45 1-1 1s-1-.44-1-1c0-.55.45-1 1-1s1 .45 1 1zm8.02 0c0 .56-.45 1-1 1-.56 0-1-.44-1-1 0-.55.44-1 1-1 .55 0 1 .45 1 1zm8 0c0 .56-.43 1-1 1-.54 0-1-.44-1-1 0-.55.46-1 1-1 .57 0 1 .45 1 1zm8.03 0c0 .56-.45 1-1 1s-1-.44-1-1c0-.55.45-1 1-1s1 .45 1 1zm8.02 0c0 .56-.45 1-1 1s-1-.44-1-1c0-.55.45-1 1-1s1 .45 1 1zm8.02 0c0 .56-.45 1-1 1-.56 0-1-.44-1-1 0-.55.44-1 1-1 .55 0 1 .45 1 1zm8 0c0 .56-.43 1-1 1-.54 0-1-.44-1-1 0-.55.46-1 1-1 .57 0 1 .45 1 1zm8.03 0c0 .56-.45 1-1 1s-1-.44-1-1c0-.55.45-1 1-1s1 .45 1 1zm8.02 0c0 .56-.45 1-1 1s-1-.44-1-1c0-.55.45-1 1-1s1 .45 1 1zm8.02 0c0 .56-.45 1-1 1s-1-.44-1-1c0-.55.45-1 1-1s1 .45 1 1zm8.02 0c0 .56-.45 1-1 1-.56 0-1-.44-1-1 0-.55.44-1 1-1 .55 0 1 .45 1 1zm8 0c0 .56-.43 1-1 1-.54 0-1-.44-1-1 0-.55.46-1 1-1 .57 0 1 .45 1 1zm8.03 0c0 .56-.46 1-1 1-.56 0-1-.44-1-1 0-.55.44-1 1-1 .54 0 1 .45 1 1zm8 0c0 .56-.44 1-1 1-.54 0-1-.44-1-1 0-.55.46-1 1-1 .56 0 1 .45 1 1zm8.03 0c0 .56-.45 1-1 1-.56 0-1-.44-1-1 0-.55.44-1 1-1 .55 0 1 .45 1 1zm8 0c0 .56-.43 1-1 1-.54 0-1-.44-1-1 0-.55.46-1 1-1 .57 0 1 .45 1 1zm8.03 0c0 .56-.45 1-1 1s-1-.44-1-1c0-.55.45-1 1-1s1 .45 1 1zm8.02 0c0 .56-.45 1-1 1s-1-.44-1-1c0-.55.45-1 1-1s1 .45 1 1zm8.02 0c0 .56-.45 1-1 1-.56 0-1-.44-1-1 0-.55.44-1 1-1 .55 0 1 .45 1 1zm8 0c0 .56-.43 1-1 1-.54 0-1-.44-1-1 0-.55.46-1 1-1 .57 0 1 .45 1 1zm8.03 0c0 .56-.45 1-1 1s-1-.44-1-1c0-.55.45-1 1-1s1 .45 1 1zm8.02 0c0 .56-.45 1-1 1s-1-.44-1-1c0-.55.45-1 1-1s1 .45 1 1zm8.02 0c0 .56-.45 1-1 1s-1-.44-1-1c0-.55.45-1 1-1s1 .45 1 1zm8.02 0c0 .56-.46 1-1 1-.57 0-1-.44-1-1 0-.55.43-1 1-1 .54 0 1 .45 1 1zm8 0c0 .56-.45 1-1 1s-1-.44-1-1c0-.55.45-1 1-1s1 .45 1 1zm8.02 0c0 .56-.45 1-1 1s-1-.44-1-1c0-.55.45-1 1-1s1 .45 1 1zm8.02 0c0 .56-.45 1-1 1s-1-.44-1-1c0-.55.45-1 1-1s1 .45 1 1zm8.02 0c0 .56-.45 1-1 1-.56 0-1-.44-1-1 0-.55.44-1 1-1 .55 0 1 .45 1 1zm8 0c0 .56-.43 1-1 1-.54 0-1-.44-1-1 0-.55.46-1 1-1 .57 0 1 .45 1 1zm8.03 0c0 .56-.46 1-1 1-.56 0-1-.44-1-1 0-.55.44-1 1-1 .54 0 1 .45 1 1zm8 0c0 .56-.44 1-1 1-.54 0-1-.44-1-1 0-.55.46-1 1-1 .56 0 1 .45 1 1zm8.03 0c0 .56-.45 1-1 1-.56 0-1-.44-1-1 0-.55.44-1 1-1 .55 0 1 .45 1 1zm8 0c0 .56-.43 1-1 1-.54 0-1-.44-1-1 0-.55.46-1 1-1 .57 0 1 .45 1 1zm8.03 0c0 .56-.45 1-1 1s-1-.44-1-1c0-.55.45-1 1-1s1 .45 1 1zm8.02 0c0 .56-.45 1-1 1s-1-.44-1-1c0-.55.45-1 1-1s1 .45 1 1zm8.02 0c0 .56-.45 1-1 1s-1-.44-1-1c0-.55.45-1 1-1s1 .45 1 1zm8 0c0 .56-.43 1-1 1-.54 0-1-.44-1-1 0-.55.46-1 1-1 .57 0 1 .45 1 1zm8.03 0c0 .56-.45 1-1 1s-1-.44-1-1c0-.55.45-1 1-1s1 .45 1 1zm8.02 0c0 .56-.45 1-1 1s-1-.44-1-1c0-.55.45-1 1-1s1 .45 1 1zm8.02 0c0 .56-.45 1-1 1s-1-.44-1-1c0-.55.45-1 1-1s1 .45 1 1zm8.02 0c0 .56-.46 1-1 1-.57 0-1-.44-1-1 0-.55.43-1 1-1 .54 0 1 .45 1 1zm8 0c0 .56-.44 1-1 1-.55 0-1-.44-1-1 0-.55.45-1 1-1 .56 0 1 .45 1 1zm8.02 0c0 .56-.45 1-1 1s-1-.44-1-1c0-.55.45-1 1-1s1 .45 1 1zm8.02 0c0 .56-.45 1-1 1s-1-.44-1-1c0-.55.45-1 1-1s1 .45 1 1zm8.02 0c0 .56-.45 1-1 1-.56 0-1-.44-1-1 0-.55.44-1 1-1 .55 0 1 .45 1 1zm8 0c0 .56-.43 1-1 1-.54 0-1-.44-1-1 0-.55.46-1 1-1 .57 0 1 .45 1 1zm8.03 0c0 .56-.46 1-1 1-.56 0-1-.44-1-1 0-.55.44-1 1-1 .54 0 1 .45 1 1zm8 0c0 .56-.44 1-1 1-.54 0-1-.44-1-1 0-.55.46-1 1-1 .56 0 1 .45 1 1zm8.03 0c0 .56-.45 1-1 1s-1-.44-1-1c0-.55.45-1 1-1s1 .45 1 1zm8 0c0 .56-.43 1-1 1-.54 0-1-.44-1-1 0-.55.46-1 1-1 .57 0 1 .45 1 1zm8.03 0c0 .56-.45 1-1 1s-1-.44-1-1c0-.55.45-1 1-1s1 .45 1 1zm8.02 0c0 .56-.45 1-1 1s-1-.44-1-1c0-.55.45-1 1-1s1 .45 1 1zm8.02 0c0 .56-.45 1-1 1s-1-.44-1-1c0-.55.45-1 1-1s1 .45 1 1zm8.02 0c0 .56-.45 1-1 1-.56 0-1-.44-1-1 0-.55.44-1 1-1 .55 0 1 .45 1 1zm8 0c0 .56-.43 1-1 1-.54 0-1-.44-1-1 0-.55.46-1 1-1 .57 0 1 .45 1 1zm8.03 0c0 .56-.45 1-1 1s-1-.44-1-1c0-.55.45-1 1-1s1 .45 1 1zm8.02 0c0 .56-.45 1-1 1s-1-.44-1-1c0-.55.45-1 1-1s1 .45 1 1zm8.02 0c0 .56-.46 1-1 1-.57 0-1-.44-1-1 0-.55.43-1 1-1 .54 0 1 .45 1 1zm8 0c0 .56-.44 1-1 1-.55 0-1-.44-1-1 0-.55.45-1 1-1 .56 0 1 .45 1 1zm8.02 0c0 .56-.45 1-1 1s-1-.44-1-1c0-.55.45-1 1-1s1 .45 1 1zm8.02 0c0 .56-.45 1-1 1s-1-.44-1-1c0-.55.45-1 1-1s1 .45 1 1zm8.02 0c0 .56-.45 1-1 1s-1-.44-1-1c0-.55.45-1 1-1s1 .45 1 1zm8 0c0 .56-.43 1-1 1-.54 0-1-.44-1-1 0-.55.46-1 1-1 .57 0 1 .45 1 1zm8.03 0c0 .56-.45 1-1 1-.56 0-1-.44-1-1 0-.55.44-1 1-1 .55 0 1 .45 1 1zm8 0c0 .56-.44 1-1 1-.54 0-1-.44-1-1 0-.55.46-1 1-1 .56 0 1 .45 1 1zm8.03 0c0 .56-.45 1-1 1s-1-.44-1-1c0-.55.45-1 1-1s1 .45 1 1zm8.02 0c0 .56-.45 1-1 1-.56 0-1-.44-1-1 0-.55.44-1 1-1 .55 0 1 .45 1 1zm8 0c0 .56-.43 1-1 1-.54 0-1-.44-1-1 0-.55.46-1 1-1 .57 0 1 .45 1 1zm8.03 0c0 .56-.45 1-1 1s-1-.44-1-1c0-.55.45-1 1-1s1 .45 1 1zm8.02 0c0 .56-.45 1-1 1s-1-.44-1-1c0-.55.45-1 1-1s1 .45 1 1zm8.02 0c0 .56-.45 1-1 1s-1-.44-1-1c0-.55.45-1 1-1s1 .45 1 1zm8.02 0c0 .56-.45 1-1 1-.56 0-1-.44-1-1 0-.55.44-1 1-1 .55 0 1 .45 1 1zm8 0c0 .56-.44 1-1 1-.54 0-1-.44-1-1 0-.55.46-1 1-1 .56 0 1 .45 1 1zm8.03 0c0 .56-.45 1-1 1s-1-.44-1-1c0-.55.45-1 1-1s1 .45 1 1zm8.02 0c0 .56-.46 1-1 1-.57 0-1-.44-1-1 0-.55.43-1 1-1 .54 0 1 .45 1 1zm8 0c0 .56-.44 1-1 1-.55 0-1-.44-1-1 0-.55.45-1 1-1 .56 0 1 .45 1 1zm8.02 0c0 .56-.45 1-1 1s-1-.44-1-1c0-.55.45-1 1-1s1 .45 1 1zm8.02 0c0 .56-.45 1-1 1s-1-.44-1-1c0-.55.45-1 1-1s1 .45 1 1zm8.02 0c0 .56-.45 1-1 1s-1-.44-1-1c0-.55.45-1 1-1s1 .45 1 1zm8.02 0c0 .56-.45 1-1 1-.56 0-1-.44-1-1 0-.55.44-1 1-1 .55 0 1 .45 1 1zm8 0c0 .56-.43 1-1 1-.54 0-1-.44-1-1 0-.55.46-1 1-1 .57 0 1 .45 1 1zm8.03 0c0 .56-.44 1-1 1-.54 0-1-.44-1-1 0-.55.46-1 1-1 .56 0 1 .45 1 1zm8.03 0c0 .56-.45 1-1 1s-1-.44-1-1c0-.55.45-1 1-1s1 .45 1 1zm8.02 0c0 .56-.45 1-1 1s-1-.44-1-1c0-.55.45-1 1-1s1 .45 1 1zm8.02 0c0 .56-.45 1-1 1-.56 0-1-.44-1-1 0-.55.44-1 1-1 .55 0 1 .45 1 1zm8 0c0 .56-.43 1-1 1-.54 0-1-.44-1-1 0-.55.46-1 1-1 .57 0 1 .45 1 1zm8.03 0c0 .56-.45 1-1 1s-1-.44-1-1c0-.55.45-1 1-1s1 .45 1 1zm-8.02 2c0 .56-.45 1-1 1s-1-.44-1-1c0-.55.45-1 1-1s1 .45 1 1zm-8 0c0 .56-.46 1-1 1-.57 0-1-.44-1-1 0-.55.43-1 1-1 .54 0 1 .45 1 1zm-8.03 0c0 .56-.45 1-1 1s-1-.44-1-1c0-.55.45-1 1-1s1 .45 1 1zm-8.02 0c0 .56-.45 1-1 1s-1-.44-1-1c0-.55.45-1 1-1s1 .45 1 1zm-8.02 0c0 .56-.44 1-1 1-.54 0-1-.44-1-1 0-.55.46-1 1-1 .56 0 1 .45 1 1zm-8 0c0 .56-.45 1-1 1-.56 0-1-.44-1-1 0-.55.44-1 1-1 .55 0 1 .45 1 1zm-8.02 0c0 .56-.45 1-1 1-.56 0-1-.44-1-1 0-.55.44-1 1-1 .55 0 1 .45 1 1zm-8.02 0c0 .56-.45 1-1 1s-1-.44-1-1c0-.55.45-1 1-1s1 .45 1 1zm-8.02 0c0 .56-.45 1-1 1s-1-.44-1-1c0-.55.45-1 1-1s1 .45 1 1zm-8.02 0c0 .56-.45 1-1 1s-1-.44-1-1c0-.55.45-1 1-1s1 .45 1 1zm-8.02 0c0 .56-.44 1-1 1-.55 0-1-.44-1-1 0-.55.45-1 1-1 .56 0 1 .45 1 1zm-8 0c0 .56-.46 1-1 1-.57 0-1-.44-1-1 0-.55.43-1 1-1 .54 0 1 .45 1 1zm-8.03 0c0 .56-.45 1-1 1s-1-.44-1-1c0-.55.45-1 1-1s1 .45 1 1zm-8.02 0c0 .56-.45 1-1 1s-1-.44-1-1c0-.55.45-1 1-1s1 .45 1 1zm-8 0c0 .56-.46 1-1 1-.57 0-1-.44-1-1 0-.55.43-1 1-1 .54 0 1 .45 1 1zm-8.03 0c0 .56-.45 1-1 1s-1-.44-1-1c0-.55.45-1 1-1s1 .45 1 1zm-8.02 0c0 .56-.45 1-1 1s-1-.44-1-1c0-.55.45-1 1-1s1 .45 1 1zm-8.02 0c0 .56-.45 1-1 1s-1-.44-1-1c0-.55.45-1 1-1s1 .45 1 1zm-8.02 0c0 .56-.44 1-1 1-.55 0-1-.44-1-1 0-.55.45-1 1-1 .56 0 1 .45 1 1zm-8 0c0 .56-.46 1-1 1-.57 0-1-.44-1-1 0-.55.43-1 1-1 .54 0 1 .45 1 1zm-8.03 0c0 .56-.45 1-1 1s-1-.44-1-1c0-.55.45-1 1-1s1 .45 1 1zm-8.02 0c0 .56-.44 1-1 1-.54 0-1-.44-1-1 0-.55.46-1 1-1 .56 0 1 .45 1 1zm-8 0c0 .56-.45 1-1 1-.56 0-1-.44-1-1 0-.55.44-1 1-1 .55 0 1 .45 1 1zm-8.03 0c0 .56-.44 1-1 1-.55 0-1-.44-1-1 0-.55.45-1 1-1 .56 0 1 .45 1 1zm-8 0c0 .56-.46 1-1 1-.57 0-1-.44-1-1 0-.55.43-1 1-1 .54 0 1 .45 1 1zm-8.03 0c0 .56-.45 1-1 1s-1-.44-1-1c0-.55.45-1 1-1s1 .45 1 1zm-8.02 0c0 .56-.45 1-1 1s-1-.44-1-1c0-.55.45-1 1-1s1 .45 1 1zm-8.02 0c0 .56-.44 1-1 1-.55 0-1-.44-1-1 0-.55.45-1 1-1 .56 0 1 .45 1 1zm-8 0c0 .56-.46 1-1 1-.57 0-1-.44-1-1 0-.55.43-1 1-1 .54 0 1 .45 1 1zm-8.03 0c0 .56-.45 1-1 1s-1-.44-1-1c0-.55.45-1 1-1s1 .45 1 1zm-8.02 0c0 .56-.45 1-1 1s-1-.44-1-1c0-.55.45-1 1-1s1 .45 1 1zm-8.02 0c0 .56-.44 1-1 1-.55 0-1-.44-1-1 0-.55.45-1 1-1 .56 0 1 .45 1 1zm-8 0c0 .56-.46 1-1 1-.57 0-1-.44-1-1 0-.55.43-1 1-1 .54 0 1 .45 1 1zm-8.03 0c0 .56-.45 1-1 1s-1-.44-1-1c0-.55.45-1 1-1s1 .45 1 1zm-8.02 0c0 .56-.45 1-1 1s-1-.44-1-1c0-.55.45-1 1-1s1 .45 1 1zm-8.02 0c0 .56-.45 1-1 1s-1-.44-1-1c0-.55.45-1 1-1s1 .45 1 1zm-8.02 0c0 .56-.44 1-1 1-.55 0-1-.44-1-1 0-.55.45-1 1-1 .56 0 1 .45 1 1zm-8 0c0 .56-.46 1-1 1-.57 0-1-.44-1-1 0-.55.43-1 1-1 .54 0 1 .45 1 1zm-8.03 0c0 .56-.44 1-1 1-.54 0-1-.44-1-1 0-.55.46-1 1-1 .56 0 1 .45 1 1zm-8 0c0 .56-.46 1-1 1-.56 0-1-.44-1-1 0-.55.44-1 1-1 .54 0 1 .45 1 1zm-8.03 0c0 .56-.44 1-1 1-.55 0-1-.44-1-1 0-.55.45-1 1-1 .56 0 1 .45 1 1zm-8 0c0 .56-.46 1-1 1-.57 0-1-.44-1-1 0-.55.43-1 1-1 .54 0 1 .45 1 1zm-8.03 0c0 .56-.45 1-1 1s-1-.44-1-1c0-.55.45-1 1-1s1 .45 1 1zm-8.02 0c0 .56-.45 1-1 1s-1-.44-1-1c0-.55.45-1 1-1s1 .45 1 1zm-8.02 0c0 .56-.44 1-1 1-.55 0-1-.44-1-1 0-.55.45-1 1-1 .56 0 1 .45 1 1zm-8 0c0 .56-.46 1-1 1-.57 0-1-.44-1-1 0-.55.43-1 1-1 .54 0 1 .45 1 1zm-8.03 0c0 .56-.45 1-1 1s-1-.44-1-1c0-.55.45-1 1-1s1 .45 1 1zm-8.02 0c0 .56-.45 1-1 1s-1-.44-1-1c0-.55.45-1 1-1s1 .45 1 1zm-8.02 0c0 .56-.45 1-1 1s-1-.44-1-1c0-.55.45-1 1-1s1 .45 1 1zm-8.02 0c0 .56-.43 1-1 1-.54 0-1-.44-1-1 0-.55.46-1 1-1 .57 0 1 .45 1 1zm-8 0c0 .56-.45 1-1 1s-1-.44-1-1c0-.55.45-1 1-1s1 .45 1 1zm-8.02 0c0 .56-.45 1-1 1s-1-.44-1-1c0-.55.45-1 1-1s1 .45 1 1zm-8.02 0c0 .56-.45 1-1 1s-1-.44-1-1c0-.55.45-1 1-1s1 .45 1 1zm-8.02 0c0 .56-.44 1-1 1-.55 0-1-.44-1-1 0-.55.45-1 1-1 .56 0 1 .45 1 1zm-8 0c0 .56-.46 1-1 1-.57 0-1-.44-1-1 0-.55.43-1 1-1 .54 0 1 .45 1 1zm-8.03 0c0 .56-.44 1-1 1-.54 0-1-.44-1-1 0-.55.46-1 1-1 .56 0 1 .45 1 1zm-8 0c0 .56-.46 1-1 1-.56 0-1-.44-1-1 0-.55.44-1 1-1 .54 0 1 .45 1 1zm-8.03 0c0 .56-.44 1-1 1-.55 0-1-.44-1-1 0-.55.45-1 1-1 .56 0 1 .45 1 1zm-8 0c0 .56-.46 1-1 1-.57 0-1-.44-1-1 0-.55.43-1 1-1 .54 0 1 .45 1 1zm-8.03 0c0 .56-.45 1-1 1s-1-.44-1-1c0-.55.45-1 1-1s1 .45 1 1zm-8.02 0c0 .56-.45 1-1 1s-1-.44-1-1c0-.55.45-1 1-1s1 .45 1 1zm-8.02 0c0 .56-.45 1-1 1s-1-.44-1-1c0-.55.45-1 1-1s1 .45 1 1zm-8 0c0 .56-.46 1-1 1-.57 0-1-.44-1-1 0-.55.43-1 1-1 .54 0 1 .45 1 1zm-8.03 0c0 .56-.45 1-1 1s-1-.44-1-1c0-.55.45-1 1-1s1 .45 1 1zm-8.02 0c0 .56-.45 1-1 1s-1-.44-1-1c0-.55.45-1 1-1s1 .45 1 1zm-8.02 0c0 .56-.45 1-1 1s-1-.44-1-1c0-.55.45-1 1-1s1 .45 1 1zm-8.02 0c0 .56-.43 1-1 1-.54 0-1-.44-1-1 0-.55.46-1 1-1 .57 0 1 .45 1 1zm-8 0c0 .56-.45 1-1 1-.56 0-1-.44-1-1 0-.55.44-1 1-1 .55 0 1 .45 1 1zm-8.02 0c0 .56-.45 1-1 1s-1-.44-1-1c0-.55.45-1 1-1s1 .45 1 1zm-8.02 0c0 .56-.45 1-1 1s-1-.44-1-1c0-.55.45-1 1-1s1 .45 1 1zm-8.02 0c0 .56-.44 1-1 1-.55 0-1-.44-1-1 0-.55.45-1 1-1 .56 0 1 .45 1 1zm-8 0c0 .56-.46 1-1 1-.57 0-1-.44-1-1 0-.55.43-1 1-1 .54 0 1 .45 1 1zm-8.03 0c0 .56-.44 1-1 1-.54 0-1-.44-1-1 0-.55.46-1 1-1 .56 0 1 .45 1 1zm-8 0c0 .56-.46 1-1 1-.56 0-1-.44-1-1 0-.55.44-1 1-1 .54 0 1 .45 1 1zm-8.03 0c0 .56-.45 1-1 1s-1-.44-1-1c0-.55.45-1 1-1s1 .45 1 1zm-8 0c0 .56-.46 1-1 1-.57 0-1-.44-1-1 0-.55.43-1 1-1 .54 0 1 .45 1 1zm-8.03 0c0 .56-.45 1-1 1s-1-.44-1-1c0-.55.45-1 1-1s1 .45 1 1zm-8.02 0c0 .56-.45 1-1 1s-1-.44-1-1c0-.55.45-1 1-1s1 .45 1 1zm-8.02 0c0 .56-.45 1-1 1s-1-.44-1-1c0-.55.45-1 1-1s1 .45 1 1zm-8.02 0c0 .56-.44 1-1 1-.55 0-1-.44-1-1 0-.55.45-1 1-1 .56 0 1 .45 1 1zm-8 0c0 .56-.46 1-1 1-.57 0-1-.44-1-1 0-.55.43-1 1-1 .54 0 1 .45 1 1zm-8.03 0c0 .56-.45 1-1 1s-1-.44-1-1c0-.55.45-1 1-1s1 .45 1 1zm-8.02 0c0 .56-.45 1-1 1s-1-.44-1-1c0-.55.45-1 1-1s1 .45 1 1zm-8.02 0c0 .56-.43 1-1 1-.54 0-1-.44-1-1 0-.55.46-1 1-1 .57 0 1 .45 1 1zm-8 0c0 .56-.45 1-1 1-.56 0-1-.44-1-1 0-.55.44-1 1-1 .55 0 1 .45 1 1zm-8.02 0c0 .56-.45 1-1 1s-1-.44-1-1c0-.55.45-1 1-1s1 .45 1 1zm-8.02 0c0 .56-.45 1-1 1s-1-.44-1-1c0-.55.45-1 1-1s1 .45 1 1zm-8.02 0c0 .56-.45 1-1 1s-1-.44-1-1c0-.55.45-1 1-1s1 .45 1 1zm-8 0c0 .56-.46 1-1 1-.57 0-1-.44-1-1 0-.55.43-1 1-1 .54 0 1 .45 1 1zm-8.03 0c0 .56-.44 1-1 1-.55 0-1-.44-1-1 0-.55.45-1 1-1 .56 0 1 .45 1 1zm-8 0c0 .56-.46 1-1 1-.56 0-1-.44-1-1 0-.55.44-1 1-1 .54 0 1 .45 1 1zm-8.03 0c0 .56-.45 1-1 1s-1-.44-1-1c0-.55.45-1 1-1s1 .45 1 1zm-8.02 0c0 .56-.44 1-1 1-.55 0-1-.44-1-1 0-.55.45-1 1-1 .56 0 1 .45 1 1zm-8 0c0 .56-.46 1-1 1-.57 0-1-.44-1-1 0-.55.43-1 1-1 .54 0 1 .45 1 1zm-8.03 0c0 .56-.45 1-1 1s-1-.44-1-1c0-.55.45-1 1-1s1 .45 1 1zm-8.02 0c0 .56-.45 1-1 1s-1-.44-1-1c0-.55.45-1 1-1s1 .45 1 1zm-8.02 0c0 .56-.45 1-1 1s-1-.44-1-1c0-.55.45-1 1-1s1 .45 1 1zm-8.02 0c0 .56-.44 1-1 1-.55 0-1-.44-1-1 0-.55.45-1 1-1 .56 0 1 .45 1 1zm-8 0c0 .56-.46 1-1 1-.56 0-1-.44-1-1 0-.55.44-1 1-1 .54 0 1 .45 1 1zm-8.03 0c0 .56-.45 1-1 1s-1-.44-1-1c0-.55.45-1 1-1s1 .45 1 1zm-8.02 0c0 .56-.43 1-1 1-.54 0-1-.44-1-1 0-.55.46-1 1-1 .57 0 1 .45 1 1zm-8 0c0 .56-.45 1-1 1-.56 0-1-.44-1-1 0-.55.44-1 1-1 .55 0 1 .45 1 1zm-8.02 0c0 .56-.45 1-1 1s-1-.44-1-1c0-.55.45-1 1-1s1 .45 1 1zm-8.02 0c0 .56-.45 1-1 1s-1-.44-1-1c0-.55.45-1 1-1s1 .45 1 1zm-8.02 0c0 .56-.45 1-1 1s-1-.44-1-1c0-.55.45-1 1-1s1 .45 1 1zm-8.02 0c0 .56-.44 1-1 1-.55 0-1-.44-1-1 0-.55.45-1 1-1 .56 0 1 .45 1 1zm-8 0c0 .56-.46 1-1 1-.57 0-1-.44-1-1 0-.55.43-1 1-1 .54 0 1 .45 1 1zm-8.03 0c0 .56-.46 1-1 1-.56 0-1-.44-1-1 0-.55.44-1 1-1 .54 0 1 .45 1 1zm-8.03 0c0 .56-.45 1-1 1s-1-.44-1-1c0-.55.45-1 1-1s1 .45 1 1zm-8.02 0c0 .56-.45 1-1 1s-1-.44-1-1c0-.55.45-1 1-1s1 .45 1 1zm-8.02 0c0 .56-.44 1-1 1-.55 0-1-.44-1-1 0-.55.45-1 1-1 .56 0 1 .45 1 1zm-8 0c0 .56-.46 1-1 1-.57 0-1-.44-1-1 0-.55.43-1 1-1 .54 0 1 .45 1 1zm-8.03 0c0 .56-.45 1-1 1s-1-.44-1-1c0-.55.45-1 1-1s1 .45 1 1z" fill="#5e5e5e"/><path d="M2560-1047.93h45.5v52.66H2560z" fill="#fff" fill-opacity="0"/><use xlink:href="#m" transform="matrix(1,0,0,1,2565,-1042.9340770343942) translate(13.061728395061728 24.97222222222222)"/><path d="M2782-1479a1 1 0 0 1 1 1v699.03a1 1 0 0 1-1 1 1 1 0 0 1-1-1V-1478a1 1 0 0 1 1-1z" fill="none"/><path d="M2782-1478c-.55 0-1-.45-1-1s.45-1 1-1 1 .45 1 1-.45 1-1 1zm1 9.03c-.55 0-1-.44-1-1 0-.55.45-1 1-1s1 .45 1 1c0 .56-.45 1-1 1zm0 8.04c-.55 0-1-.45-1-1s.45-1 1-1 1 .45 1 1-.45 1-1 1zm0 8.03c-.55 0-1-.44-1-1 0-.55.45-1 1-1s1 .45 1 1c0 .56-.45 1-1 1zm0 8.04c-.55 0-1-.45-1-1s.45-1 1-1 1 .45 1 1-.45 1-1 1zm0 8.03c-.55 0-1-.44-1-1 0-.55.45-1 1-1s1 .45 1 1c0 .56-.45 1-1 1zm0 8.04c-.55 0-1-.44-1-1 0-.54.45-1 1-1s1 .46 1 1c0 .56-.45 1-1 1zm0 8.04c-.55 0-1-.44-1-1 0-.55.45-1 1-1s1 .45 1 1c0 .56-.45 1-1 1zm0 8.04c-.55 0-1-.45-1-1s.45-1 1-1 1 .45 1 1-.45 1-1 1zm0 8.03c-.55 0-1-.43-1-1 0-.54.45-1 1-1s1 .46 1 1c0 .57-.45 1-1 1zm0 8.05c-.55 0-1-.45-1-1s.45-1 1-1 1 .45 1 1-.45 1-1 1zm0 8.03c-.55 0-1-.44-1-1 0-.55.45-1 1-1s1 .45 1 1c0 .56-.45 1-1 1zm0 8.04c-.55 0-1-.45-1-1s.45-1 1-1 1 .45 1 1-.45 1-1 1zm0 8.03c-.55 0-1-.44-1-1 0-.55.45-1 1-1s1 .45 1 1c0 .56-.45 1-1 1zm0 8.04c-.55 0-1-.46-1-1 0-.56.45-1 1-1s1 .44 1 1c0 .54-.45 1-1 1zm0 8.02c-.55 0-1-.44-1-1 0-.55.45-1 1-1s1 .45 1 1c0 .56-.45 1-1 1zm0 8.04c-.55 0-1-.45-1-1s.45-1 1-1 1 .45 1 1-.45 1-1 1zm0 8.03c-.55 0-1-.46-1-1 0-.56.45-1 1-1s1 .44 1 1c0 .54-.45 1-1 1zm0 8.03c-.55 0-1-.45-1-1s.45-1 1-1 1 .45 1 1-.45 1-1 1zm0 8.03c-.55 0-1-.45-1-1s.45-1 1-1 1 .45 1 1-.45 1-1 1zm0 8.04c-.55 0-1-.45-1-1 0-.56.45-1 1-1s1 .44 1 1c0 .55-.45 1-1 1zm0 8.03c-.55 0-1-.45-1-1s.45-1 1-1 1 .45 1 1-.45 1-1 1zm0 8.04c-.55 0-1-.45-1-1 0-.56.45-1 1-1s1 .44 1 1c0 .55-.45 1-1 1zm0 8.03c-.55 0-1-.45-1-1s.45-1 1-1 1 .45 1 1-.45 1-1 1zm0 8.04c-.55 0-1-.45-1-1 0-.56.45-1 1-1s1 .44 1 1c0 .55-.45 1-1 1zm0 8.03c-.55 0-1-.45-1-1s.45-1 1-1 1 .45 1 1-.45 1-1 1zm0 8.04c-.55 0-1-.44-1-1 0-.55.45-1 1-1s1 .45 1 1c0 .56-.45 1-1 1zm0 8.04c-.55 0-1-.45-1-1s.45-1 1-1 1 .45 1 1-.45 1-1 1zm0 8.04c-.55 0-1-.45-1-1 0-.56.45-1 1-1s1 .44 1 1c0 .55-.45 1-1 1zm0 8.03c-.55 0-1-.44-1-1 0-.54.45-1 1-1s1 .46 1 1c0 .56-.45 1-1 1zm0 8.05c-.55 0-1-.45-1-1 0-.56.45-1 1-1s1 .44 1 1c0 .55-.45 1-1 1zm0 8.03c-.55 0-1-.45-1-1s.45-1 1-1 1 .45 1 1-.45 1-1 1zm0 8.04c-.55 0-1-.45-1-1 0-.56.45-1 1-1s1 .44 1 1c0 .55-.45 1-1 1zm0 8.03c-.55 0-1-.45-1-1s.45-1 1-1 1 .45 1 1-.45 1-1 1zm0 8.04c-.55 0-1-.46-1-1 0-.57.45-1 1-1s1 .43 1 1c0 .54-.45 1-1 1zm0 8.02c-.55 0-1-.45-1-1s.45-1 1-1 1 .45 1 1-.45 1-1 1zm0 8.04c-.55 0-1-.45-1-1 0-.56.45-1 1-1s1 .44 1 1c0 .55-.45 1-1 1zm0 8.03c-.55 0-1-.46-1-1 0-.56.45-1 1-1s1 .44 1 1c0 .54-.45 1-1 1zm0 8.02c-.55 0-1-.44-1-1 0-.55.45-1 1-1s1 .45 1 1c0 .56-.45 1-1 1zm0 8.04c-.55 0-1-.45-1-1s.45-1 1-1 1 .45 1 1-.45 1-1 1zm0 8.03c-.55 0-1-.45-1-1 0-.56.45-1 1-1s1 .44 1 1c0 .55-.45 1-1 1zm0 8.03c-.55 0-1-.45-1-1s.45-1 1-1 1 .45 1 1-.45 1-1 1zm0 8.03c-.55 0-1-.44-1-1 0-.55.45-1 1-1s1 .45 1 1c0 .56-.45 1-1 1zm0 8.04c-.55 0-1-.45-1-1s.45-1 1-1 1 .45 1 1-.45 1-1 1zm0 8.03c-.55 0-1-.44-1-1 0-.55.45-1 1-1s1 .45 1 1c0 .56-.45 1-1 1zm0 8.04c-.55 0-1-.45-1-1s.45-1 1-1 1 .45 1 1-.45 1-1 1zm0 8.03c-.55 0-1-.44-1-1 0-.55.45-1 1-1s1 .45 1 1c0 .56-.45 1-1 1zm0 8.04c-.55 0-1-.45-1-1s.45-1 1-1 1 .45 1 1-.45 1-1 1zm0 8.03c-.55 0-1-.44-1-1 0-.55.45-1 1-1s1 .45 1 1c0 .56-.45 1-1 1zm0 8.04c-.55 0-1-.44-1-1 0-.54.45-1 1-1s1 .46 1 1c0 .56-.45 1-1 1zm0 8.04c-.55 0-1-.44-1-1 0-.55.45-1 1-1s1 .45 1 1c0 .56-.45 1-1 1zm0 8.04c-.55 0-1-.45-1-1s.45-1 1-1 1 .45 1 1-.45 1-1 1zm0 8.03c-.55 0-1-.43-1-1 0-.54.45-1 1-1s1 .46 1 1c0 .57-.45 1-1 1zm0 8.05c-.55 0-1-.45-1-1s.45-1 1-1 1 .45 1 1-.45 1-1 1zm0 8.03c-.55 0-1-.45-1-1s.45-1 1-1 1 .45 1 1-.45 1-1 1zm0 8.04c-.55 0-1-.45-1-1s.45-1 1-1 1 .45 1 1-.45 1-1 1zm0 8.03c-.55 0-1-.45-1-1s.45-1 1-1 1 .45 1 1-.45 1-1 1zm0 8.04c-.55 0-1-.46-1-1 0-.57.45-1 1-1s1 .43 1 1c0 .54-.45 1-1 1zm0 8.02c-.55 0-1-.45-1-1s.45-1 1-1 1 .45 1 1-.45 1-1 1zm0 8.04c-.55 0-1-.45-1-1 0-.56.45-1 1-1s1 .44 1 1c0 .55-.45 1-1 1zm0 8.03c-.55 0-1-.46-1-1 0-.56.45-1 1-1s1 .44 1 1c0 .54-.45 1-1 1zm0 8.03c-.55 0-1-.45-1-1 0-.56.45-1 1-1s1 .44 1 1c0 .55-.45 1-1 1zm0 8.03c-.55 0-1-.45-1-1s.45-1 1-1 1 .45 1 1-.45 1-1 1zm0 8.04c-.55 0-1-.45-1-1 0-.56.45-1 1-1s1 .44 1 1c0 .55-.45 1-1 1zm0 8.03c-.55 0-1-.45-1-1s.45-1 1-1 1 .45 1 1-.45 1-1 1zm0 8.04c-.55 0-1-.45-1-1 0-.56.45-1 1-1s1 .44 1 1c0 .55-.45 1-1 1zm0 8.03c-.55 0-1-.45-1-1s.45-1 1-1 1 .45 1 1-.45 1-1 1zm0 8.04c-.55 0-1-.45-1-1 0-.56.45-1 1-1s1 .44 1 1c0 .55-.45 1-1 1zm0 8.03c-.55 0-1-.45-1-1s.45-1 1-1 1 .45 1 1-.45 1-1 1zm0 8.04c-.55 0-1-.44-1-1 0-.55.45-1 1-1s1 .45 1 1c0 .56-.45 1-1 1zm0 8.04c-.55 0-1-.45-1-1s.45-1 1-1 1 .45 1 1-.45 1-1 1zm0 8.04c-.55 0-1-.45-1-1 0-.56.45-1 1-1s1 .44 1 1c0 .55-.45 1-1 1zm0 8.03c-.55 0-1-.44-1-1 0-.54.45-1 1-1s1 .46 1 1c0 .56-.45 1-1 1zm0 8.04c-.55 0-1-.44-1-1 0-.55.45-1 1-1s1 .45 1 1c0 .56-.45 1-1 1zm0 8.04c-.55 0-1-.45-1-1s.45-1 1-1 1 .45 1 1-.45 1-1 1zm0 8.03c-.55 0-1-.43-1-1 0-.54.45-1 1-1s1 .46 1 1c0 .57-.45 1-1 1zm0 8.05c-.55 0-1-.45-1-1s.45-1 1-1 1 .45 1 1-.45 1-1 1zm0 8.03c-.55 0-1-.44-1-1 0-.55.45-1 1-1s1 .45 1 1c0 .56-.45 1-1 1zm0 8.04c-.55 0-1-.45-1-1s.45-1 1-1 1 .45 1 1-.45 1-1 1zm0 8.03c-.55 0-1-.44-1-1 0-.55.45-1 1-1s1 .45 1 1c0 .56-.45 1-1 1zm0 8.04c-.55 0-1-.46-1-1 0-.56.45-1 1-1s1 .44 1 1c0 .54-.45 1-1 1zm0 8.02c-.55 0-1-.44-1-1 0-.55.45-1 1-1s1 .45 1 1c0 .56-.45 1-1 1zm0 8.04c-.55 0-1-.45-1-1s.45-1 1-1 1 .45 1 1-.45 1-1 1zm0 8.03c-.55 0-1-.45-1-1 0-.56.45-1 1-1s1 .44 1 1c0 .55-.45 1-1 1zm0 8.03c-.55 0-1-.45-1-1s.45-1 1-1 1 .45 1 1-.45 1-1 1zm0 8.03c-.55 0-1-.44-1-1 0-.55.45-1 1-1s1 .45 1 1c0 .56-.45 1-1 1zm0 8.04c-.55 0-1-.45-1-1s.45-1 1-1 1 .45 1 1-.45 1-1 1zm0 8.03c-.55 0-1-.44-1-1 0-.55.45-1 1-1s1 .45 1 1c0 .56-.45 1-1 1zm-2-8.03c-.55 0-1-.45-1-1s.45-1 1-1 1 .45 1 1-.45 1-1 1zm0-8.04c-.55 0-1-.44-1-1 0-.55.45-1 1-1s1 .45 1 1c0 .56-.45 1-1 1zm0-8.03c-.55 0-1-.45-1-1s.45-1 1-1 1 .45 1 1-.45 1-1 1zm0-8.04c-.55 0-1-.45-1-1 0-.56.45-1 1-1s1 .44 1 1c0 .55-.45 1-1 1zm0-8.04c-.55 0-1-.45-1-1s.45-1 1-1 1 .45 1 1-.45 1-1 1zm0-8.04c-.55 0-1-.44-1-1 0-.55.45-1 1-1s1 .45 1 1c0 .56-.45 1-1 1zm0-8.03c-.55 0-1-.46-1-1 0-.56.45-1 1-1s1 .44 1 1c0 .54-.45 1-1 1zm0-8.05c-.55 0-1-.44-1-1 0-.55.45-1 1-1s1 .45 1 1c0 .56-.45 1-1 1zm0-8.03c-.55 0-1-.45-1-1s.45-1 1-1 1 .45 1 1-.45 1-1 1zm0-8.04c-.55 0-1-.44-1-1 0-.55.45-1 1-1s1 .45 1 1c0 .56-.45 1-1 1zm0-8.03c-.55 0-1-.45-1-1s.45-1 1-1 1 .45 1 1-.45 1-1 1zm0-8.04c-.55 0-1-.43-1-1 0-.54.45-1 1-1s1 .46 1 1c0 .57-.45 1-1 1zm0-8.02c-.55 0-1-.45-1-1s.45-1 1-1 1 .45 1 1-.45 1-1 1zm0-8.04c-.55 0-1-.44-1-1 0-.55.45-1 1-1s1 .45 1 1c0 .56-.45 1-1 1zm0-8.03c-.55 0-1-.44-1-1 0-.54.45-1 1-1s1 .46 1 1c0 .56-.45 1-1 1zm0-8.02c-.55 0-1-.45-1-1 0-.56.45-1 1-1s1 .44 1 1c0 .55-.45 1-1 1zm0-8.04c-.55 0-1-.45-1-1s.45-1 1-1 1 .45 1 1-.45 1-1 1zm0-8.03c-.55 0-1-.44-1-1 0-.55.45-1 1-1s1 .45 1 1c0 .56-.45 1-1 1zm0-8.03c-.55 0-1-.45-1-1s.45-1 1-1 1 .45 1 1-.45 1-1 1zm0-8.03c-.55 0-1-.45-1-1 0-.56.45-1 1-1s1 .44 1 1c0 .55-.45 1-1 1zm0-8.04c-.55 0-1-.45-1-1s.45-1 1-1 1 .45 1 1-.45 1-1 1zm0-8.03c-.55 0-1-.45-1-1 0-.56.45-1 1-1s1 .44 1 1c0 .55-.45 1-1 1zm0-8.04c-.55 0-1-.45-1-1s.45-1 1-1 1 .45 1 1-.45 1-1 1zm0-8.03c-.55 0-1-.45-1-1 0-.56.45-1 1-1s1 .44 1 1c0 .55-.45 1-1 1zm0-8.04c-.55 0-1-.45-1-1s.45-1 1-1 1 .45 1 1-.45 1-1 1zm0-8.03c-.55 0-1-.45-1-1 0-.56.45-1 1-1s1 .44 1 1c0 .55-.45 1-1 1zm0-8.04c-.55 0-1-.46-1-1 0-.56.45-1 1-1s1 .44 1 1c0 .54-.45 1-1 1zm0-8.04c-.55 0-1-.45-1-1 0-.56.45-1 1-1s1 .44 1 1c0 .55-.45 1-1 1zm0-8.04c-.55 0-1-.45-1-1s.45-1 1-1 1 .45 1 1-.45 1-1 1zm0-8.03c-.55 0-1-.46-1-1 0-.57.45-1 1-1s1 .43 1 1c0 .54-.45 1-1 1zm0-8.05c-.55 0-1-.45-1-1s.45-1 1-1 1 .45 1 1-.45 1-1 1zm0-8.03c-.55 0-1-.45-1-1s.45-1 1-1 1 .45 1 1-.45 1-1 1zm0-8.04c-.55 0-1-.45-1-1s.45-1 1-1 1 .45 1 1-.45 1-1 1zm0-8.03c-.55 0-1-.45-1-1s.45-1 1-1 1 .45 1 1-.45 1-1 1zm0-8.04c-.55 0-1-.43-1-1 0-.54.45-1 1-1s1 .46 1 1c0 .57-.45 1-1 1zm0-8.02c-.55 0-1-.45-1-1s.45-1 1-1 1 .45 1 1-.45 1-1 1zm0-8.04c-.55 0-1-.44-1-1 0-.55.45-1 1-1s1 .45 1 1c0 .56-.45 1-1 1zm0-8.03c-.55 0-1-.44-1-1 0-.54.45-1 1-1s1 .46 1 1c0 .56-.45 1-1 1zm0-8.03c-.55 0-1-.44-1-1 0-.55.45-1 1-1s1 .45 1 1c0 .56-.45 1-1 1zm0-8.03c-.55 0-1-.45-1-1s.45-1 1-1 1 .45 1 1-.45 1-1 1zm0-8.04c-.55 0-1-.44-1-1 0-.55.45-1 1-1s1 .45 1 1c0 .56-.45 1-1 1zm0-8.03c-.55 0-1-.45-1-1s.45-1 1-1 1 .45 1 1-.45 1-1 1zm0-8.04c-.55 0-1-.44-1-1 0-.55.45-1 1-1s1 .45 1 1c0 .56-.45 1-1 1zm0-8.03c-.55 0-1-.45-1-1s.45-1 1-1 1 .45 1 1-.45 1-1 1zm0-8.04c-.55 0-1-.44-1-1 0-.55.45-1 1-1s1 .45 1 1c0 .56-.45 1-1 1zm0-8.03c-.55 0-1-.45-1-1s.45-1 1-1 1 .45 1 1-.45 1-1 1zm0-8.04c-.55 0-1-.45-1-1 0-.56.45-1 1-1s1 .44 1 1c0 .55-.45 1-1 1zm0-8.04c-.55 0-1-.45-1-1s.45-1 1-1 1 .45 1 1-.45 1-1 1zm0-8.04c-.55 0-1-.44-1-1 0-.55.45-1 1-1s1 .45 1 1c0 .56-.45 1-1 1zm0-8.03c-.55 0-1-.46-1-1 0-.56.45-1 1-1s1 .44 1 1c0 .54-.45 1-1 1zm0-8.04c-.55 0-1-.45-1-1 0-.56.45-1 1-1s1 .44 1 1c0 .55-.45 1-1 1zm0-8.04c-.55 0-1-.45-1-1s.45-1 1-1 1 .45 1 1-.45 1-1 1zm0-8.03c-.55 0-1-.46-1-1 0-.57.45-1 1-1s1 .43 1 1c0 .54-.45 1-1 1zm0-8.05c-.55 0-1-.45-1-1s.45-1 1-1 1 .45 1 1-.45 1-1 1zm0-8.03c-.55 0-1-.45-1-1 0-.56.45-1 1-1s1 .44 1 1c0 .55-.45 1-1 1zm0-8.04c-.55 0-1-.45-1-1s.45-1 1-1 1 .45 1 1-.45 1-1 1zm0-8.03c-.55 0-1-.45-1-1 0-.56.45-1 1-1s1 .44 1 1c0 .55-.45 1-1 1zm0-8.04c-.55 0-1-.44-1-1 0-.54.45-1 1-1s1 .46 1 1c0 .56-.45 1-1 1zm0-8.02c-.55 0-1-.45-1-1 0-.56.45-1 1-1s1 .44 1 1c0 .55-.45 1-1 1zm0-8.04c-.55 0-1-.45-1-1s.45-1 1-1 1 .45 1 1-.45 1-1 1zm0-8.03c-.55 0-1-.44-1-1 0-.55.45-1 1-1s1 .45 1 1c0 .56-.45 1-1 1zm0-8.03c-.55 0-1-.45-1-1s.45-1 1-1 1 .45 1 1-.45 1-1 1zm0-8.03c-.55 0-1-.45-1-1 0-.56.45-1 1-1s1 .44 1 1c0 .55-.45 1-1 1zm0-8.04c-.55 0-1-.45-1-1s.45-1 1-1 1 .45 1 1-.45 1-1 1zm0-8.03c-.55 0-1-.45-1-1 0-.56.45-1 1-1s1 .44 1 1c0 .55-.45 1-1 1zm0-8.04c-.55 0-1-.45-1-1s.45-1 1-1 1 .45 1 1-.45 1-1 1zm0-8.03c-.55 0-1-.45-1-1 0-.56.45-1 1-1s1 .44 1 1c0 .55-.45 1-1 1zm0-8.04c-.55 0-1-.45-1-1s.45-1 1-1 1 .45 1 1-.45 1-1 1zm0-8.03c-.55 0-1-.45-1-1s.45-1 1-1 1 .45 1 1-.45 1-1 1zm0-8.04c-.55 0-1-.46-1-1 0-.56.45-1 1-1s1 .44 1 1c0 .54-.45 1-1 1zm0-8.04c-.55 0-1-.45-1-1s.45-1 1-1 1 .45 1 1-.45 1-1 1zm0-8.04c-.55 0-1-.44-1-1 0-.55.45-1 1-1s1 .45 1 1c0 .56-.45 1-1 1zm0-8.03c-.55 0-1-.46-1-1 0-.56.45-1 1-1s1 .44 1 1c0 .54-.45 1-1 1zm0-8.05c-.55 0-1-.44-1-1 0-.55.45-1 1-1s1 .45 1 1c0 .56-.45 1-1 1zm0-8.03c-.55 0-1-.45-1-1s.45-1 1-1 1 .45 1 1-.45 1-1 1zm0-8.04c-.55 0-1-.44-1-1 0-.55.45-1 1-1s1 .45 1 1c0 .56-.45 1-1 1zm0-8.03c-.55 0-1-.45-1-1s.45-1 1-1 1 .45 1 1-.45 1-1 1zm0-8.04c-.55 0-1-.43-1-1 0-.54.45-1 1-1s1 .46 1 1c0 .57-.45 1-1 1zm0-8.02c-.55 0-1-.45-1-1s.45-1 1-1 1 .45 1 1-.45 1-1 1zm0-8.04c-.55 0-1-.44-1-1 0-.55.45-1 1-1s1 .45 1 1c0 .56-.45 1-1 1zm0-8.03c-.55 0-1-.44-1-1 0-.54.45-1 1-1s1 .46 1 1c0 .56-.45 1-1 1zm0-8.03c-.55 0-1-.44-1-1 0-.55.45-1 1-1s1 .45 1 1c0 .56-.45 1-1 1zm0-8.03c-.55 0-1-.45-1-1s.45-1 1-1 1 .45 1 1-.45 1-1 1zm0-8.04c-.55 0-1-.44-1-1 0-.55.45-1 1-1s1 .45 1 1c0 .56-.45 1-1 1zm0-8.03c-.55 0-1-.45-1-1s.45-1 1-1 1 .45 1 1-.45 1-1 1zm0-8.04c-.55 0-1-.44-1-1 0-.55.45-1 1-1s1 .45 1 1c0 .56-.45 1-1 1zm0-8.03c-.55 0-1-.45-1-1s.45-1 1-1 1 .45 1 1-.45 1-1 1z" fill="#5e5e5e"/><path d="M2700-881h45.5v52.67H2700z" fill="#fff" fill-opacity="0"/><use xlink:href="#n" transform="matrix(1,0,0,1,2705,-875.9934539978938) translate(13.061728395061728 16.90972222222222)"/><use xlink:href="#f" transform="matrix(1,0,0,1,2705,-875.9934539978938) translate(0 38.24305555555556)"/><path d="M2767.25-1008.9c0 34.76-28.5 62.93-63.63 62.93s-63.62-28.17-63.62-62.9c0-34.76 28.5-62.93 63.62-62.93 35.14 0 63.63 28.17 63.63 62.9z" stroke="#5e5e5e" stroke-width="2" fill="#fff"/><use xlink:href="#o" transform="matrix(1,0,0,1,2645.0000000000005,-1066.8028837558309) translate(7.666666666666657 61.34722222222222)"/><path d="M2863-1152.3l-99.43 89.48" stroke="#3a414a" fill="none"/><path d="M2863.72-1152.26l-.4.35-.66-.75.38-.33z" stroke="#3a414a" stroke-width=".05" fill="#3a414a"/><path d="M2752.6-1052.94l7.5-13 6.2 6.9z" stroke="#3a414a" fill="#3a414a"/><path d="M3055.85-1163.35l-278.17 122" stroke="#3a414a" fill="none"/><path d="M3056.5-1163.1l-.46.2-.4-.9.48-.22z" stroke="#3a414a" stroke-width=".05" fill="#3a414a"/><path d="M2764.16-1035.43l11.2-9.97 3.72 8.5z" stroke="#3a414a" fill="#3a414a"/><path d="M3269.4-1146.57l-485.35 133.34" stroke="#3a414a" fill="none"/><path d="M3269.85-1146.73l.6.4-.92.25-.27-.97.15-.04z" stroke="#3a414a" stroke-width=".05" fill="#3a414a"/><path d="M2769.8-1009.3l12.54-8.26 2.45 8.94z" stroke="#3a414a" fill="#3a414a"/><path d="M2933.8-1008.9c0 22.1-17.9 40-40 40-22.08 0-40-17.9-40-40 0-22.08 17.92-40 40-40 22.1.02 40 17.92 40 40.02z" fill="#fff"/><path d="M2931.15-994.55l-.1.3-2.1 4.5-2.68 4.24-1.43 1.74m-5.88 5.94l-3.57 2.62-4.36 2.43-2.92 1.17m-8.06 2.16l-3.38.45-2.87.12-5.03-.32-1.2-.23m-8.1-2.12l-.3-.1-4.5-2.1-4.24-2.67-1.74-1.44m-5.95-5.87l-2.62-3.57-2.43-4.36-1.17-2.9m-2.17-8.08l-.45-3.38-.1-2.87.33-5.02.22-1.2m2.13-8.1l.1-.3 2.1-4.52 2.67-4.22 1.43-1.75m5.88-5.95l3.57-2.62 4.36-2.43 2.9-1.17m8.06-2.16l3.38-.45 2.87-.1 5.05.3 1.2.24m8.1 2.12l.3.1 4.5 2.1 4.24 2.67 1.74 1.44m5.93 5.86l2.63 3.57 2.42 4.36 1.18 2.9m2.16 8.07l.45 3.38.1 2.87-.3 5.03-.23 1.2" stroke="#5e5e5e" stroke-width="4" fill="none"/><path d="M3133.8-1008.9c0 22.1-17.9 40-40 40-22.08 0-40-17.9-40-40 0-22.08 17.92-40 40-40 22.1.02 40 17.92 40 40.02z" fill="#fff"/><path d="M3131.15-994.55l-.1.3-2.1 4.5-2.68 4.24-1.43 1.74m-5.88 5.94l-3.57 2.62-4.36 2.43-2.92 1.17m-8.06 2.16l-3.38.45-2.87.12-5.03-.32-1.2-.23m-8.1-2.12l-.3-.1-4.5-2.1-4.24-2.67-1.74-1.44m-5.95-5.87l-2.62-3.57-2.43-4.36-1.17-2.9m-2.17-8.08l-.45-3.38-.1-2.87.33-5.02.22-1.2m2.13-8.1l.1-.3 2.1-4.52 2.67-4.22 1.43-1.75m5.88-5.95l3.57-2.62 4.36-2.43 2.9-1.17m8.06-2.16l3.38-.45 2.87-.1 5.05.3 1.2.24m8.1 2.12l.3.1 4.5 2.1 4.24 2.67 1.74 1.44m5.93 5.86l2.63 3.57 2.42 4.36 1.18 2.9m2.16 8.07l.45 3.38.1 2.87-.3 5.03-.23 1.2" stroke="#5e5e5e" stroke-width="4" fill="none"/><path d="M3333.8-1007.93c0 22.1-17.9 40-40 40-22.08 0-40-17.9-40-40s17.92-40 40-40c22.1 0 40 17.9 40 40z" fill="#fff"/><path d="M3331.15-993.6l-.1.3-2.1 4.52-2.68 4.23-1.43 1.74m-5.88 5.93l-3.57 2.62-4.36 2.43-2.92 1.17m-8.06 2.16l-3.38.47-2.87.1-5.03-.32-1.2-.23m-8.1-2.12l-.3-.1-4.5-2.1-4.24-2.67-1.74-1.44m-5.95-5.88l-2.62-3.57-2.43-4.36-1.17-2.92m-2.17-8.07l-.45-3.36-.1-2.87.33-5.04.22-1.2m2.13-8.1l.1-.3 2.1-4.5 2.67-4.24 1.43-1.76m5.88-5.94l3.57-2.62 4.36-2.43 2.9-1.17m8.06-2.16l3.38-.45 2.87-.1 5.05.3 1.2.24m8.1 2.13l.3.1 4.5 2.1 4.24 2.68 1.74 1.44m5.93 5.87l2.63 3.58 2.42 4.36 1.18 2.92m2.16 8.06l.45 3.38.1 2.87-.3 5.03-.23 1.22" stroke="#5e5e5e" stroke-width="4" fill="none"/><path d="M2895.7-1051.77v-36.34c-2.77 0-5-2.25-5-5 0-2.78 2.23-5 5-5v-22.46" stroke="#5e5e5e" stroke-width="2" fill="none"/><path d="M2896.7-1050.7l-2-.13v-.97h2z" stroke="#5e5e5e" stroke-width=".05" fill="#5e5e5e"/><path d="M2895.7-1135.83l4.62 14.27h-9.27z" stroke="#5e5e5e" stroke-width="2" fill="#5e5e5e"/><path d="M3093.8-1051.4v-41.93c-2.75 0-5-2.24-5-5s2.25-5 5-5v-19.3" stroke="#3a414a" fill="none"/><path d="M3094.3-1050.86l-.46-.03-.53.03v-.53h1z" stroke="#3a414a" stroke-width=".05" fill="#3a414a"/><path d="M3093.8-1137.38l4.65 14.26h-9.27z" stroke="#3a414a" fill="#3a414a"/><path d="M3293.8-1050.43v-72.18" stroke="#3a414a" fill="none"/><path d="M3294.3-1049.9l-.46-.04-.53.02v-.53h1z" stroke="#3a414a" stroke-width=".05" fill="#3a414a"/><path d="M3293.8-1137.38l4.65 14.26h-9.27z" stroke="#3a414a" fill="#3a414a"/><defs><path fill="#333" d="M30-248c87 1 191-15 191 75 0 78-77 80-158 76V0H30v-248zm33 125c57 0 124 11 124-50 0-59-68-47-124-48v98" id="p"/><g id="a"><use transform="matrix(0.04938271604938272,0,0,0.04938271604938272,0,0)" xlink:href="#p"/><use transform="matrix(0.04938271604938272,0,0,0.04938271604938272,11.851851851851853,0)" xlink:href="#p"/></g><path fill="#333" d="M30 0v-248h187v28H63v79h144v27H63v87h162V0H30" id="q"/><path fill="#333" d="M30 0v-248h33v221h125V0H30" id="r"/><g id="b"><use transform="matrix(0.04938271604938272,0,0,0.04938271604938272,0,0)" xlink:href="#q"/><use transform="matrix(0.04938271604938272,0,0,0.04938271604938272,11.851851851851853,0)" xlink:href="#r"/></g><path fill="#333" d="M59-47c-2 24 18 29 38 22v24C64 9 27 4 27-40v-127H5v-23h24l9-43h21v43h35v23H59v120" id="s"/><use transform="matrix(0.04938271604938272,0,0,0.04938271604938272,0,0)" xlink:href="#s" id="c"/><path fill="#333" d="M16-82v-28h88v28H16" id="t"/><use transform="matrix(0.04938271604938272,0,0,0.04938271604938272,0,0)" xlink:href="#t" id="d"/><path fill="#333" d="M100-20c69 3 59-102 24-131-4-5-8-9-11-12-35 12-65 35-65 80 0 37 16 62 52 63zM15-83c0-56 38-82 82-97l-56-60v-21h129v23l-90-1c38 49 105 73 105 156 0 54-31 87-85 87S15-29 15-83" id="u"/><g id="e"><use transform="matrix(0.04938271604938272,0,0,0.04938271604938272,0,0)" xlink:href="#u"/><use transform="matrix(0.04938271604938272,0,0,0.04938271604938272,9.876543209876544,0)" xlink:href="#s"/></g><path fill="#333" d="M118-107v75H92v-75H18v-26h74v-75h26v75h74v26h-74" id="v"/><use transform="matrix(0.04938271604938272,0,0,0.04938271604938272,0,0)" xlink:href="#v" id="g"/><use transform="matrix(0.04938271604938272,0,0,0.04938271604938272,0,0)" xlink:href="#s" id="h"/><path fill="#333" d="M127-220V0H93v-220H8v-28h204v28h-85" id="w"/><path fill="#333" d="M24-231v-30h32v30H24zM24 0v-190h32V0H24" id="x"/><path fill="#333" d="M210-169c-67 3-38 105-44 169h-31v-121c0-29-5-50-35-48C34-165 62-65 56 0H25l-1-190h30c1 10-1 24 2 32 10-44 99-50 107 0 11-21 27-35 58-36 85-2 47 119 55 194h-31v-121c0-29-5-49-35-48" id="y"/><path fill="#333" d="M100-194c63 0 86 42 84 106H49c0 40 14 67 53 68 26 1 43-12 49-29l28 8c-11 28-37 45-77 45C44 4 14-33 15-96c1-61 26-98 85-98zm52 81c6-60-76-77-97-28-3 7-6 17-6 28h103" id="z"/><g id="i"><use transform="matrix(0.07407407407407407,0,0,0.07407407407407407,0,0)" xlink:href="#w"/><use transform="matrix(0.07407407407407407,0,0,0.07407407407407407,15.259259259259258,0)" xlink:href="#x"/><use transform="matrix(0.07407407407407407,0,0,0.07407407407407407,21.111111111111107,0)" xlink:href="#y"/><use transform="matrix(0.07407407407407407,0,0,0.07407407407407407,43.259259259259245,0)" xlink:href="#z"/></g><path fill="#333" d="M100-194c62-1 85 37 85 99 1 63-27 99-86 99S16-35 15-95c0-66 28-99 85-99zM99-20c44 1 53-31 53-75 0-43-8-75-51-75s-53 32-53 75 10 74 51 75" id="A"/><path fill="#333" d="M96-169c-40 0-48 33-48 73s9 75 48 75c24 0 41-14 43-38l32 2c-6 37-31 61-74 61-59 0-76-41-82-99-10-93 101-131 147-64 4 7 5 14 7 22l-32 3c-4-21-16-35-41-35" id="B"/><path fill="#333" d="M141-36C126-15 110 5 73 4 37 3 15-17 15-53c-1-64 63-63 125-63 3-35-9-54-41-54-24 1-41 7-42 31l-33-3c5-37 33-52 76-52 45 0 72 20 72 64v82c-1 20 7 32 28 27v20c-31 9-61-2-59-35zM48-53c0 20 12 33 32 33 41-3 63-29 60-74-43 2-92-5-92 41" id="C"/><path fill="#333" d="M117-194c89-4 53 116 60 194h-32v-121c0-31-8-49-39-48C34-167 62-67 57 0H25l-1-190h30c1 10-1 24 2 32 11-22 29-35 61-36" id="D"/><g id="j"><use transform="matrix(0.07407407407407407,0,0,0.07407407407407407,0,0)" xlink:href="#r"/><use transform="matrix(0.07407407407407407,0,0,0.07407407407407407,14.814814814814813,0)" xlink:href="#A"/><use transform="matrix(0.07407407407407407,0,0,0.07407407407407407,29.629629629629626,0)" xlink:href="#B"/><use transform="matrix(0.07407407407407407,0,0,0.07407407407407407,42.96296296296296,0)" xlink:href="#C"/><use transform="matrix(0.07407407407407407,0,0,0.07407407407407407,57.77777777777777,0)" xlink:href="#s"/><use transform="matrix(0.07407407407407407,0,0,0.07407407407407407,65.18518518518518,0)" xlink:href="#x"/><use transform="matrix(0.07407407407407407,0,0,0.07407407407407407,71.03703703703702,0)" xlink:href="#A"/><use transform="matrix(0.07407407407407407,0,0,0.07407407407407407,85.85185185185183,0)" xlink:href="#D"/></g><path fill="#333" d="M-5 72V49h209v23H-5" id="E"/><path fill="#333" d="M27 0v-27h64v-190l-56 39v-29l58-41h29v221h61V0H27" id="F"/><g id="k"><use transform="matrix(0.04938271604938272,0,0,0.04938271604938272,0,0)" xlink:href="#r"/><use transform="matrix(0.04938271604938272,0,0,0.04938271604938272,9.876543209876544,0)" xlink:href="#A"/><use transform="matrix(0.04938271604938272,0,0,0.04938271604938272,19.75308641975309,0)" xlink:href="#B"/><use transform="matrix(0.04938271604938272,0,0,0.04938271604938272,28.641975308641978,0)" xlink:href="#E"/><use transform="matrix(0.04938271604938272,0,0,0.04938271604938272,38.51851851851852,0)" xlink:href="#F"/></g><path fill="#333" d="M212-179c-10-28-35-45-73-45-59 0-87 40-87 99 0 60 29 101 89 101 43 0 62-24 78-52l27 14C228-24 195 4 139 4 59 4 22-46 18-125c-6-104 99-153 187-111 19 9 31 26 39 46" id="G"/><path fill="#333" d="M140-251c81 0 123 46 123 126C263-46 219 4 140 4 59 4 17-45 17-125s42-126 123-126zm0 227c63 0 89-41 89-101s-29-99-89-99c-61 0-89 39-89 99S79-25 140-24" id="H"/><path fill="#333" d="M101-251c82-7 93 87 43 132L82-64C71-53 59-42 53-27h129V0H18c2-99 128-94 128-182 0-28-16-43-45-43s-46 15-49 41l-32-3c6-41 34-60 81-64" id="I"/><g id="l"><use transform="matrix(0.0685185185185185,0,0,0.0685185185185185,0,0)" xlink:href="#p"/><use transform="matrix(0.0685185185185185,0,0,0.0685185185185185,16.444444444444443,0)" xlink:href="#p"/><use transform="matrix(0.0685185185185185,0,0,0.0685185185185185,32.888888888888886,0)" xlink:href="#E"/><use transform="matrix(0.0685185185185185,0,0,0.0685185185185185,46.59259259259258,0)" xlink:href="#G"/><use transform="matrix(0.0685185185185185,0,0,0.0685185185185185,64.33888888888887,0)" xlink:href="#H"/><use transform="matrix(0.0685185185185185,0,0,0.0685185185185185,83.52407407407406,0)" xlink:href="#I"/></g><path fill="#333" d="M101-251c68 0 85 55 85 127S166 4 100 4C33 4 14-52 14-124c0-73 17-127 87-127zm-1 229c47 0 54-49 54-102s-4-102-53-102c-51 0-55 48-55 102 0 53 5 102 54 102" id="J"/><use transform="matrix(0.04938271604938272,0,0,0.04938271604938272,0,0)" xlink:href="#J" id="m"/><use transform="matrix(0.04938271604938272,0,0,0.04938271604938272,0,0)" xlink:href="#J" id="n"/><path fill="#333" d="M160-131c35 5 61 23 61 61C221 17 115-2 30 0v-248c76 3 177-17 177 60 0 33-19 50-47 57zm-97-11c50-1 110 9 110-42 0-47-63-36-110-37v79zm0 115c55-2 124 14 124-45 0-56-70-42-124-44v89" id="K"/><path fill="#333" d="M84 4C-5 8 30-112 23-190h32v120c0 31 7 50 39 49 72-2 45-101 50-169h31l1 190h-30c-1-10 1-25-2-33-11 22-28 36-60 37" id="L"/><path fill="#333" d="M85-194c31 0 48 13 60 33l-1-100h32l1 261h-30c-2-10 0-23-3-31C134-8 116 4 85 4 32 4 16-35 15-94c0-66 23-100 70-100zm9 24c-40 0-46 34-46 75 0 40 6 74 45 74 42 0 51-32 51-76 0-42-9-74-50-73" id="M"/><path fill="#333" d="M177-190C167-65 218 103 67 71c-23-6-38-20-44-43l32-5c15 47 100 32 89-28v-30C133-14 115 1 83 1 29 1 15-40 15-95c0-56 16-97 71-98 29-1 48 16 59 35 1-10 0-23 2-32h30zM94-22c36 0 50-32 50-73 0-42-14-75-50-75-39 0-46 34-46 75s6 73 46 73" id="N"/><g id="o"><use transform="matrix(0.04938271604938272,0,0,0.04938271604938272,0,0)" xlink:href="#G"/><use transform="matrix(0.04938271604938272,0,0,0.04938271604938272,12.790123456790125,0)" xlink:href="#H"/><use transform="matrix(0.04938271604938272,0,0,0.04938271604938272,26.617283950617285,0)" xlink:href="#I"/><use transform="matrix(0.04938271604938272,0,0,0.04938271604938272,36.49382716049383,0)" xlink:href="#E"/><use transform="matrix(0.04938271604938272,0,0,0.04938271604938272,46.370370370370374,0)" xlink:href="#K"/><use transform="matrix(0.04938271604938272,0,0,0.04938271604938272,58.22222222222223,0)" xlink:href="#L"/><use transform="matrix(0.04938271604938272,0,0,0.04938271604938272,68.09876543209877,0)" xlink:href="#M"/><use transform="matrix(0.04938271604938272,0,0,0.04938271604938272,77.97530864197532,0)" xlink:href="#N"/><use transform="matrix(0.04938271604938272,0,0,0.04938271604938272,87.85185185185186,0)" xlink:href="#z"/><use transform="matrix(0.04938271604938272,0,0,0.04938271604938272,97.7283950617284,0)" xlink:href="#s"/></g></defs></g></svg>